<?xml version="1.0" standalone="no"?>
<!DOCTYPE svg PUBLIC "-//W3C//DTD SVG 1.1//EN" "http://www.w3.org/Graphics/SVG/1.1/DTD/svg11.dtd" >
<!--
2013-9-30: Created.
-->
<svg>
<metadata>
Created by iconfont
</metadata>
<defs>

<font id="iconfont" horiz-adv-x="1024" >
  <font-face
    font-family="iconfont"
    font-weight="500"
    font-stretch="normal"
    units-per-em="1024"
    ascent="896"
    descent="-128"
  />
    <missing-glyph />
    
    <glyph glyph-name="upanshuma01" unicode="&#58885;" d="M748.724493 493.172581l-46.048779 0L702.675714 747.355701l-382.716518 0 0-254.18312-46.048779 0c-45.777603 0-82.887802-37.110199-82.887802-82.887802l0-474.734258c0-45.777603 37.110199-82.887802 82.887802-82.887802l474.814076 0c45.777603 0 82.887802 37.110199 82.887802 82.887802L831.612295 410.284779C831.612295 456.063405 794.502096 493.172581 748.724493 493.172581zM385.450792 681.864104l251.733325 0 0-187.983395-251.733325 0L385.450792 681.864104zM766.120698-64.449479c0-9.592472-7.803733-17.396205-17.396205-17.396205l-474.814076 0c-9.592472 0-17.396205 7.803733-17.396205 17.396205L256.514211 410.284779c0 9.592472 7.803733 17.396205 17.396205 17.396205l474.814076 0c9.592472 0 17.396205-7.803733 17.396205-17.396205L766.120698-64.449479zM448.479291 620.359308l127.395482 0 0-64.465221-127.395482 0 0 64.465221ZM671.50683 362.790068c-17.214057 0-31.16786-13.954827-31.16786-31.16786l0-321.601602c0-17.214057 13.954827-31.16786 31.16786-31.16786s31.16786 13.954827 31.16786 31.16786L702.674691 331.622208C702.675714 348.836265 688.720887 362.790068 671.50683 362.790068z"  horiz-adv-x="1024" />

    
    <glyph glyph-name="20shezhi" unicode="&#58983;" d="M940.319136 208.660576l-35.914978 1.890047c-2.913353 9.405207-6.697539 18.425651-11.237949 26.982538l24.098861 26.780947c7.637957 7.628748 7.637957 20.123316 0 27.76946l-35.407418 35.407418c-7.637957 7.637957-20.131503 7.637957-27.76946 0l-26.964118-24.269753c-8.499581 4.453429-17.445324 8.153704-26.771737 11.006681l-1.911536 36.317137c0 10.79588-8.836249 19.633153-19.633153 19.633153l-50.079582 0c-10.79588 0-19.633153-8.836249-19.633153-19.633153l-1.933025-36.667108c-9.168824-2.886747-17.975397-6.588045-26.338878-11.032264l-27.380604 24.64633c-7.633864 7.637957-20.12741 7.637957-27.76946 0l-35.403325-35.407418c-7.637957-7.647167-7.637957-20.140713 0-27.76946l24.803919-27.567869c-4.348028-8.303106-7.983835-17.033955-10.80509-26.133194l-37.051871-1.951445c-10.79588 0-19.633153-8.828063-19.633153-19.633153l0-50.071396c0-10.80509 8.836249-19.641339 19.633153-19.641339l37.051871-1.951445c2.821255-9.090029 6.457062-17.830087 10.80509-26.133194l-24.803919-27.559683c-7.637957-7.637957-7.637957-20.131503 0-27.76946l35.403325-35.416628c7.642051-7.628748 20.135596-7.628748 27.76946 0l27.380604 24.64633c8.359388-4.436032 17.170055-8.145517 26.338878-11.024078l1.933025-36.667108c0-10.80509 8.836249-19.641339 19.633153-19.641339l50.075489 0c10.800997 0 19.637246 8.836249 19.637246 19.641339l1.911536 36.308951c9.322319 2.861164 18.272155 6.553253 26.767644 11.006681l26.964118-24.269753c7.633864-7.628748 20.135596-7.628748 27.76946 0l35.407418 35.416628c7.642051 7.637957 7.642051 20.131503 0 27.76946l-24.094768 26.771737c4.54041 8.556886 8.324596 17.577331 11.237949 26.982538l35.910884 1.890047c10.800997 0 19.637246 8.836249 19.637246 19.641339l0 50.071396C959.952288 199.832514 951.115016 208.660576 940.319136 208.660576zM754.327094 92.437551c-34.703383 0-62.84021 28.128641-62.84021 62.836117s28.136827 62.836117 62.84021 62.836117 62.84021-28.128641 62.84021-62.836117S789.030477 92.437551 754.327094 92.437551zM343.991542 495.096261c17.506722-17.506722 38.47836-31.522947 61.34823-40.99774 22.873963-9.466606 47.612391-14.391778 72.368214-14.391778 24.750707 0 49.493228 4.926196 72.363098 14.391778 22.86987 9.474792 43.845601 23.491017 61.353346 40.99774 17.502629 17.498536 31.513738 38.47836 40.989553 61.340043 9.474792 22.87908 14.391778 47.612391 14.391778 72.372308 0 24.750707-4.916986 49.493228-14.391778 72.363098s-23.486924 43.841507-40.989553 61.34823c-17.506722 17.506722-38.482453 31.513738-61.353346 40.989553s-47.612391 14.391778-72.363098 14.391778c-24.755824 0-49.493228-4.916986-72.368214-14.391778-22.86987-9.474792-43.841507-23.482831-61.34823-40.989553-17.498536-17.506722-31.518854-38.47836-40.989553-61.34823-9.474792-22.86987-14.391778-47.612391-14.391778-72.363098 0-24.759917 4.916986-49.493228 14.391778-72.372308C312.472688 533.57462 326.493006 512.593773 343.991542 495.096261zM582.37686 362.005057c-33.43039 5.293563-68.505233 8.172123-104.669898 8.172123-228.456179 0-413.660274-127.45688-413.660274-239.077074l0.017396-0.052189 0-180.948165 59.08263 0 114.708532 0 320.06255 0c-31.063483 50.639331-48.990784 139.486868-48.990784 203.249077C508.929058 232.343975 536.435529 304.899454 582.37686 362.005057z"  horiz-adv-x="1024" />

    
    <glyph glyph-name="erweima1" unicode="&#59061;" d="M891.868657 0.839367h67.656913v-63.794955h-3.864005l-63.792908 63.794955z m35.758412 63.800071H831.17432v63.794955h64.559365v63.794956h63.792908v-63.794956h-31.898501v-63.794955zM800.039205 287.925874h159.486365v-63.791885H800.039205v63.791885z m95.693456 127.58991h63.792909v-63.794955h-63.792909v63.794955zM608.643084 830.196295h350.881462v-350.881462h-350.881462V830.196295z m63.794955-287.082414h223.294622V766.400317H672.438039v-223.286436z m63.803141 159.491481h95.686293v-95.699596h-95.686293v95.699596z m0-287.089578h95.951329v-63.794955h-95.951329v63.794955z m-63.803141 0v-127.58991h-63.794955V351.720829h-67.656913l-63.798025 63.794955h3.861958v95.693456h63.794955v-95.693456h127.59298z m63.803141-191.381795h-63.803141v63.791885h63.803141v-63.791885zM481.051127 638.803243h63.794955v-63.794955h-63.794955v63.794955z m0 159.491481h63.794955v-95.688339h-63.794955V798.294724zM349.591073 543.113881h3.867074V766.400317H130.168642v-3.867075L66.373687 826.331267v3.864005h350.881462v-350.881463h-3.861958l-63.802118 63.800072zM193.963597 702.605362h95.699595v-95.699596h-3.864004l-91.834568 91.837638v3.861958z m542.277583-510.376013h63.798025v-63.794956H764.270561l-28.029381 28.026311v35.768645z"  horiz-adv-x="1024" />

    
    <glyph glyph-name="pcdenglu" unicode="&#58925;" d="M938.112 725.632c-14.592 14.08-32.128 21.12-52.736 21.12H138.624c-20.48 0-38.144-7.04-52.736-21.12-14.592-14.08-21.888-30.976-21.888-50.688v-488.32c0-19.712 7.296-36.608 21.888-50.688 14.592-14.08 32.256-21.12 52.736-21.12h253.824c0-11.392-2.432-23.04-7.424-35.072-4.992-12.032-9.984-22.4-14.976-31.36-4.992-8.96-7.424-15.488-7.424-19.712 0-7.808 2.944-14.464 8.832-20.224 5.888-5.632 12.928-8.576 20.992-8.576h238.976c8.064 0 15.104 2.816 20.992 8.576 5.888 5.632 8.832 12.416 8.832 20.224 0 3.84-2.56 10.368-7.424 19.456-4.992 9.088-9.984 19.712-14.976 31.872-4.992 12.16-7.424 23.68-7.424 34.816h253.824c20.48 0 38.144 7.04 52.736 21.12 14.592 14.08 21.888 30.976 21.888 50.688V674.944c0.128 19.712-7.168 36.736-21.76 50.688z m-37.888-424.064c0-3.84-1.536-7.296-4.48-10.112s-6.4-4.224-10.496-4.224H138.624c-4.096 0-7.552 1.408-10.496 4.224-2.944 2.816-4.48 6.144-4.48 10.112V674.944c0 3.84 1.408 7.296 4.48 10.112 2.944 2.816 6.4 4.224 10.496 4.224h746.624c4.096 0 7.552-1.408 10.496-4.224 2.944-2.816 4.48-6.272 4.48-10.112v-373.376z"  horiz-adv-x="1024" />

    
    <glyph glyph-name="saoma" unicode="&#58982;" d="M17.55136 424.87296h454.52288V879.39072H17.55136v-454.51776z m83.48672 371.03616h287.55456v-287.55456H101.03808V795.90912zM17.55136-110.03392h454.52288v454.51776H17.55136v-454.51776z m83.48672 371.03616h287.55456v-287.5392H101.03808v287.5392z m822.46656-83.49184H843.1104v166.97344h-290.65216v-454.51776h83.49184V177.5104h83.50208v-80.37888h287.5392v247.36256h-83.48672v-166.98368zM552.45824 879.39072v-454.51776h454.51776V879.39072h-454.51776z m371.0464-371.03616h-287.55456V795.90912h287.55456v-287.55456zM224.7168 715.52h-43.28448v-123.67872h123.6736V715.52H224.7168z m575.10912-123.67872h43.28448V715.52h-123.65824v-123.67872h80.37376zM224.7168 177.5104h-43.28448v-123.66848h123.6736V177.5104H224.7168z m658.59072-163.8656v-123.67872h123.66848v123.67872h-123.66848z m-163.85536 0h123.65824v-123.67872h-123.65824v123.67872z"  horiz-adv-x="1024" />

    
    <glyph glyph-name="ruanjianpan" unicode="&#58911;" d="M998.28736 85.41183999999998c-13.20448-13.76256-28.928-20.64896-47.16544-20.64896H74.84416c-18.23232 0-33.95584 6.8864-47.16032 20.64896-13.20448 13.7728-19.80416 30.1568-19.80416 49.17248V626.26304c0 19.67104 6.6048 36.38272 19.80416 50.1504 13.20448 13.76256 28.928 20.64896 47.16032 20.64896h876.27264c18.8672 0 34.5856-6.8864 47.16544-20.64896 12.57472-13.76768 19.1744-30.47936 19.80416-50.1504v-491.67872c0.00512-19.01568-6.59456-35.4048-19.79904-49.17248z m-33.3056 558.54592H60.9792v-531.05152l904.00256 13.89568V643.95776zM151.24992 546.60608h49.9968c5.6576 0 8.48384-2.94912 8.48384-8.8576v-35.4048c0-5.90336-2.83136-8.8576-8.48384-8.8576h-49.9968c-5.66272 0-8.48896 2.94912-8.48896 8.8576v35.4048c0 5.90848 2.82624 8.8576 8.48896 8.8576z m0-132.76672H269.1584c5.6576 0 8.48896-2.944 8.48896-8.84224v-44.2624c0-5.89312-2.83136-8.84224-8.48896-8.84224H151.24992c-5.66272 0-8.48896 2.94912-8.48896 8.84224v44.2624c0 5.89824 2.82624 8.84224 8.48896 8.84224z m0-141.61408h49.9968c5.6576 0 8.48384-2.94912 8.48384-8.84736v-44.25728c0-5.89824-2.83136-8.84736-8.48384-8.84736h-49.9968c-5.66272 0-8.48896 2.94912-8.48896 8.84736v44.25728c0 5.89824 2.82624 8.84736 8.48896 8.84736z m134.88128 0h454.64064c5.66272 0 8.49408-2.94912 8.49408-8.84736v-44.25728c0-5.89824-2.83136-8.84736-8.49408-8.84736H286.1312c-5.6576 0-8.48896 2.94912-8.48896 8.84736v44.25728c0.00512 5.89824 2.83648 8.84736 8.48896 8.84736z m463.1296 132.77184c0 5.89824 2.83136 8.84224 8.48896 8.84224h58.48576V537.74848c0 5.90336 2.83136 8.8576 8.48384 8.8576h50.93888c5.6576 0 8.48896-2.94912 8.48896-8.8576v-177.01376c0-5.89312-2.83136-8.84224-8.48896-8.84224h-117.9136c-5.6576 0-8.48896 2.94912-8.48896 8.84224v44.2624z m75.46368-132.77184h50.93888c5.6576 0 8.48896-2.94912 8.48896-8.84736v-44.25728c0-5.89824-2.83136-8.84736-8.48896-8.84736h-50.93888c-5.6576 0-8.48384 2.94912-8.48384 8.84736v44.25728c0 5.89824 2.82112 8.84736 8.48384 8.84736z m-83.94752 221.26592h-50.93376c-5.6576 0-8.48896 2.94912-8.48896 8.8576V537.7536c0 5.90336 2.82624 8.8576 8.48896 8.8576h50.93376c5.66272 0 8.49408-2.94912 8.49408-8.8576v-35.4048c0-5.90848-2.83136-8.8576-8.49408-8.8576z m-59.42272-132.75648c0-5.89312-2.83648-8.84224-8.49408-8.84224h-49.99168c-5.6576 0-8.48896 2.94912-8.48896 8.84224v44.2624c0 5.89824 2.83136 8.84224 8.48896 8.84224h49.99168c5.6576 0 8.49408-2.944 8.49408-8.84224v-44.2624z m-75.45856 132.75648h-50.93376c-5.66272 0-8.49408 2.94912-8.49408 8.8576V537.7536c0 5.90336 2.83136 8.8576 8.49408 8.8576h50.93376c5.66272 0 8.48896-2.94912 8.48896-8.8576v-35.4048c0-5.90848-2.82624-8.8576-8.48896-8.8576z m-59.42784-132.75648c0-5.89312-2.51392-8.84224-7.54688-8.84224H487.9872c-5.6576 0-8.48384 2.94912-8.48384 8.84224v44.2624c0 5.89824 2.83136 8.84224 8.48384 8.84224h50.93376c5.03296 0 7.54688-2.944 7.54688-8.84224v-44.2624zM471.00416 493.4912H421.0176c-5.6576 0-8.48384 2.94912-8.48384 8.8576V537.7536c0 5.90336 2.82624 8.8576 8.48384 8.8576h49.99168c5.66272 0 8.49408-2.94912 8.49408-8.8576v-35.4048c0-5.90848-2.83136-8.8576-8.4992-8.8576z m-58.4704-132.75648c0-5.89312-2.83648-8.84224-8.48896-8.84224h-50.93376c-5.66272 0-8.49408 2.94912-8.49408 8.84224v44.2624c0 5.89824 2.83136 8.84224 8.49408 8.84224h50.93376c5.6576 0 8.48896-2.944 8.48896-8.84224v-44.2624zM336.128 493.4912h-49.99168c-5.6576 0-8.48896 2.94912-8.48896 8.8576V537.7536c0 5.90336 2.83136 8.8576 8.48896 8.8576h49.99168c5.6576 0 8.48896-2.94912 8.48896-8.8576v-35.4048c-0.00512-5.90848-2.83136-8.8576-8.48896-8.8576z"  horiz-adv-x="1024" />

    
    <glyph glyph-name="ziyuan" unicode="&#59023;" d="M68.882662 388.298085A840.110974 840.110974 0 0 0 1030.021117 697.948183l45.063424 45.063424A901.268478 901.268478 0 0 1 10.943974 404.392165L0 388.298085l10.943974-16.09408A901.268478 901.268478 0 0 1 392.051788 54.184985l43.775897 43.775898a845.261079 845.261079 0 0 0-366.945023 290.337202z m914.143742 0a225.317119 225.317119 0 0 1-44.419661 133.902745l-37.338265-40.557081A169.953484 169.953484 0 0 0 663.076094 247.313945l-40.557081-40.557082a225.317119 225.317119 0 0 1 133.902745-44.419661 227.248409 227.248409 0 0 1 227.248409 225.960883z m-226.604646 170.597248a168.665958 168.665958 0 0 0 103.002112-36.05074l41.844608 40.557082a225.317119 225.317119 0 0 1-143.559194 52.144819 227.248409 227.248409 0 0 1-228.535935-227.248409 224.029593 224.029593 0 0 1 45.063424-133.902745L579.386878 247.313945l39.913319 39.913318a168.665958 168.665958 0 0 0-36.050739 103.002112 170.597248 170.597248 0 0 0 173.1723 168.665958z m745.477784-154.503168a901.268478 901.268478 0 0 1-368.876313 311.581388l-43.775898-43.775898a844.617316 844.617316 0 0 0 354.713523-283.89957 844.617316 844.617316 0 0 0-687.539096-353.425996 842.042263 842.042263 0 0 0-261.367859 43.132134l-44.41966-45.707187a901.268478 901.268478 0 0 1 307.075045-54.076108 901.268478 901.268478 0 0 1 744.190258 394.62684l10.943974 16.09408zM356.001049-128a28.325581 28.325581 0 0 0-19.95666 48.28224l965.644798 965.644797a28.325581 28.325581 0 1 0 39.913318-39.913318l-965.644797-965.644797a28.325581 28.325581 0 0 0-19.956659-8.368922z"  horiz-adv-x="1520" />

    
    <glyph glyph-name="yanjing" unicode="&#58881;" d="M515.2 672C208 672 22.4 358.4 22.4 358.4s214.4-304 492.8-304 492.8 304 492.8 304S822.4 672 515.2 672zM832 243.2c-102.4-86.4-211.2-140.8-320-140.8s-217.6 51.2-320 140.8c-35.2 32-70.4 64-99.2 99.2-6.4 6.4-9.6 12.8-16 19.2 3.2 6.4 9.6 12.8 12.8 19.2 25.6 35.2 57.6 70.4 92.8 102.4 99.2 89.6 208 144 329.6 144s230.4-54.4 329.6-144c35.2-32 64-67.2 92.8-102.4 3.2-6.4 9.6-12.8 12.8-19.2-3.2-6.4-9.6-12.8-16-19.2-28.8-32-60.8-67.2-99.2-99.2zM512 550.4c-96 0-169.6-76.8-169.6-169.6 0-96 76.8-169.6 169.6-169.6 96 0 169.6 76.8 169.6 169.6S604.8 550.4 512 550.4z m0-294.4c-67.2 0-121.6 54.4-121.6 121.6 0 67.2 54.4 121.6 121.6 121.6 67.2 0 121.6-54.4 121.6-121.6 0-64-54.4-121.6-121.6-121.6z"  horiz-adv-x="1024" />

    
    <glyph glyph-name="wx_l" unicode="&#58974;" d="M0 896h393.846154v-393.846154L0 896z m630.153846 0h393.846154v-393.846154H630.153846V896z m0-630.153846v78.769231h-78.769231l-78.76923 79.478153V580.923077h78.76923v-78.769231h78.769231v-78.769231h157.538462v-78.76923h-78.769231v-78.769231h78.769231v78.769231h78.76923v78.76923h157.538462v-78.76923h-78.769231v-78.769231h78.769231v-393.846154L630.153846 265.846154z m78.769231 551.384615v-236.307692h236.307692V817.230769H708.923077z m0-630.153846l236.307692-236.307692V187.076923H708.923077zM78.769231 817.230769l236.307692-236.307692V817.230769H78.769231z m689.230769-59.076923h118.153846v-118.153846h-118.153846V758.153846z m0-630.153846h118.153846v-118.153846l-118.153846 118.153846zM472.615385 738.461538h78.76923v-78.76923h-78.76923V738.461538z m0 157.538462h78.76923v-78.769231h-78.76923V896zM256 640L137.846154 758.153846h118.153846v-118.153846z"  horiz-adv-x="1024" />

    
    <glyph glyph-name="fanhuishouke" unicode="&#58944;" d="M694.272 720.384h236.544c34.816 0 34.816 53.76 0 53.76h-236.544c-34.816 1.024-34.816-53.76 0-53.76z m144.384-92.16h89.6c34.816 0 34.816 53.76 0 53.76h-89.6c-34.816 0-34.816-53.76 0-53.76z m-266.24-93.184c-1.536-94.208-76.288-167.936-171.52-170.496-94.208-1.536-168.96 78.848-170.496 170.496-1.024 95.232 79.36 169.984 171.008 171.52 94.72 2.048 168.96-79.36 171.008-171.52 1.024-34.816 54.784-34.816 53.76 0-1.536 124.928-99.84 222.72-225.28 225.28-124.416 2.56-222.72-103.936-224.256-225.28-2.56-123.904 104.448-222.72 225.28-225.28 123.904-1.536 222.72 104.96 224.768 225.28 0 35.84-54.272 35.84-54.272 0z m0 0M733.696-10.752c23.04 198.656-133.12 373.248-332.288 375.808-199.68 1.536-355.328-181.248-332.288-375.808 4.096-34.304 58.88-34.816 53.76 0-19.968 168.96 104.96 319.488 278.528 322.048 78.848 1.024 152.064-33.28 205.824-89.6 59.904-62.464 81.92-147.968 71.68-231.424-3.072-35.84 50.688-35.84 54.784-1.024z m0 0M737.792-9.216c71.168 182.784 142.336 366.592 212.48 550.4 12.8 32.256-39.936 46.08-52.224 14.848-71.168-182.784-142.336-366.592-212.48-550.4-12.288-33.28 39.424-47.104 52.224-14.848z m0 0"  horiz-adv-x="1024" />

    
    <glyph glyph-name="bangdingshoukejiaoshi" unicode="&#59024;" d="M475.345 429.861c87.438 0 158.978 71.54 158.978 158.98 0 87.437-71.54 158.978-158.978 158.978-87.439 0-158.98-71.54-158.98-158.979 0-87.438 69.951-158.979 158.98-158.979z m271.853-85.848c7.949-6.36 14.308-15.898 14.308-25.437 0-17.487-14.308-31.795-31.796-31.795-7.949 0-14.308 3.18-20.667 7.949-55.642 46.103-125.593 73.13-201.903 73.13H443.55c-174.877 0-317.958-143.081-317.958-317.958 0-17.487 14.309-31.795 31.796-31.795h254.366c17.488 0 31.796-14.308 31.796-31.796s-14.308-31.796-31.796-31.796H157.387C104.924-45.485 62-2.56 62 49.902 62 223.19 178.054 369.45 337.033 415.553c-50.873 41.335-84.259 103.336-84.259 174.877C252.774 712.843 352.931 813 475.344 813c122.414 0 222.57-100.157 222.57-222.57 0-69.95-33.385-133.542-84.258-174.877 49.283-15.898 93.797-39.744 133.542-71.54z m115.809-325.727c15.126 0 27.415-12.262 27.415-27.415 0-15.152-12.289-27.417-27.415-27.417h-246.75c-15.155 0-27.416 12.265-27.416 27.417 0 15.154 12.26 27.415 27.416 27.415h246.75zM715.883 143.839l205.974 205.974a0.3 0.3 0 0 0 0.424 0l46.174-46.174a0.3 0.3 0 0 0 0-0.424L762.481 97.24a1 1 0 0 0-0.42-0.25l-65.972-19.792a0.2 0.2 0 0 0-0.249 0.25l19.792 65.971a1 1 0 0 0 0.25 0.42z"  horiz-adv-x="1024" />

    
    <glyph glyph-name="icon-toolkit" unicode="&#58886;" d="M817.87 339.69000000000005h-63.58v66.24A42.27 42.27 0 0 1 712 448.2h-84.81a42.27 42.27 0 0 1-42.27-42.27v-66.24H436.57v66.24a42.27 42.27 0 0 1-42.27 42.27h-84.83a42.27 42.27 0 0 1-42.27-42.27v-66.24h-61.83A22.39 22.39 0 0 1 183 317.29999999999995a22.39 22.39 0 0 1 22.39-22.39h61.81v-65.55a42.27 42.27 0 0 1 42.27-42.27h84.83a42.27 42.27 0 0 1 42.27 42.27v65.55h148.36v-65.55a42.27 42.27 0 0 1 42.27-42.27H712a42.27 42.27 0 0 1 42.27 42.27v65.55h63.58a22.39 22.39 0 0 1 22.39 22.39 22.39 22.39 0 0 1-22.37 22.39z m-438.64-95.26h-54.69V390.86h54.69z m317.72 0h-54.69V390.86H697zM823 693.42h-90.81v63.09a71.88 71.88 0 0 1-71.88 71.88H363.19a71.88 71.88 0 0 1-71.88-71.88v-63.08h-90.12A137.17 137.17 0 0 1 64 556.25v-479a137.17 137.17 0 0 1 137.19-137.14H823a137.17 137.17 0 0 1 137.19 137.17v479A137.17 137.17 0 0 1 823 693.42z m-474.36 54.1A23.52 23.52 0 0 0 372.17 771h279.16a23.52 23.52 0 0 0 23.52-23.52v-54.1h-326.2z m554.23-673.31a76.76 76.76 0 0 0-76.76-76.76h-628a76.76 76.76 0 0 0-76.76 76.76V559.3299999999999a76.76 76.76 0 0 0 76.76 76.76h628a76.76 76.76 0 0 0 76.76-76.76z"  horiz-adv-x="1024" />

    
    <glyph glyph-name="guanbi" unicode="&#59320;" d="M963.328-106.819a37.628 37.628 0 0 0-26.596 11.034L30.815 810.132c-14.687 14.686-14.687 38.502 0 53.19 14.686 14.687 38.502 14.687 53.19 0l905.992-906a37.697 37.697 0 0 0 7.936-40.912 37.691 37.691 0 0 0-34.605-23.229M57.407-106.819a37.555 37.555 0 0 0-34.857 23.182 37.537 37.537 0 0 0 8.265 41.035L936.816 863.32c14.866 13.52 37.739 12.973 51.937-1.249 14.202-14.22 14.716-37.094 1.17-51.942L84.004-95.787a37.579 37.579 0 0 0-26.598-11.032"  horiz-adv-x="1024" />

    
    <glyph glyph-name="shoukejiaoshi" unicode="&#59172;" d="M860.7 439.9c-13.7 9.1-32.2 5.7-41.5-8l-136-199.6c-27.7 58-75.2 104.8-134.5 130.7 43.1 32.6 71.5 83.6 71.5 141.4 0 98.2-80.3 178-179.1 178S262 602.5 262 504.4c0-57.9 28.4-108.9 71.5-141.4-94.7-41.4-161-135.1-161-244.3V89h537.2v29.7c0 15.2-2.1 29.9-4.6 44.4 2.6 2 5.4 3.6 7.4 6.5l156.2 229.1c9.2 13.6 5.7 32-8 41.2z m-539 64.5c0 65.5 53.5 118.7 119.4 118.7s119.4-53.2 119.4-118.7S507 385.7 441.1 385.7s-119.4 53.2-119.4 118.7z m-87.4-356.1c14.5 100.5 101.7 178 206.8 178s192.3-77.5 206.8-178H234.3zM679.9 623h149.3c16.5 0 29.9 13.2 29.9 29.7s-13.3 29.7-29.9 29.7H679.9c-16.5 0-29.9-13.2-29.9-29.7s13.3-29.7 29.9-29.7zM708.7 562.2c-16.6 0-30.1-13.4-30.1-30.1S692 502 708.7 502h90.1c16.6 0 30.1 13.4 30.1 30.1s-13.4 30.1-30.1 30.1h-90.1z"  horiz-adv-x="1024" />

    
    <glyph glyph-name="erweima" unicode="&#58880;" d="M62.996776 411.938306l423.162696 0L486.159472 835.099978 62.996776 835.099978 62.996776 411.938306zM168.788218 729.30956l211.580836 0 0-211.580836L168.788218 517.728724 168.788218 729.30956zM539.055193 835.099978l0-423.162696 423.162696 0L962.217888 835.099978 539.055193 835.099978zM856.426447 517.728724L644.845611 517.728724 644.845611 729.30956l211.580836 0L856.426447 517.728724zM221.682915 570.623421l105.790418 0L327.473333 676.414863 221.682915 676.414863 221.682915 570.623421zM62.996776-64.12011099999995l423.162696 0L486.159472 359.04258500000003 62.996776 359.04258500000003 62.996776-64.12011099999995zM168.788218 253.252167l211.580836 0 0-211.580836L168.788218 41.67133100000001 168.788218 253.252167zM803.531749 676.414863L697.740308 676.414863l0-105.790418 105.790418 0L803.530726 676.414863zM539.055193-64.12011099999995l105.790418 0L644.845611 41.67030799999998 539.055193 41.67030799999998 539.055193-64.12011099999995zM644.845611 253.252167l0-211.580836 105.790418 0L750.636029 253.252167 644.845611 253.252167zM856.426447 41.67030799999998L750.636029 41.67030799999998 750.636029-64.12011099999995l211.580836 0L962.216865 147.46174900000005 856.426447 147.46174900000005 856.426447 41.67030799999998zM856.426447 253.252167l105.790418 0L962.216865 359.04258500000003 856.426447 359.04258500000003 856.426447 253.252167zM539.055193 359.04258500000003l0-105.790418 105.790418 0L644.845611 359.04258500000003 539.055193 359.04258500000003zM221.682915 94.56602799999996l105.790418 0L327.473333 200.356446 221.682915 200.356446 221.682915 94.56602799999996z"  horiz-adv-x="1024" />

    
    <glyph glyph-name="gexinghuashezhi" unicode="&#58956;" d="M1013.743259-67.230879l-173.592706 176.086133a35.706696 35.706696 0 0 1-50.50854 0.373758 35.686216 35.686216 0 0 1-0.368638-50.48806l173.587586-176.091253a35.599177 35.599177 0 0 1 25.441149-10.644425 35.583817 35.583817 0 0 1 25.067391 10.275787 35.686216 35.686216 0 0 1 0.373758 50.48294z m-76.461686 348.347646c35.061579 20.515734 45.567765 45.301527 48.209672 62.473918 2.590707 16.803753 0.168959 42.905379-26.045306 71.83323-51.266296 56.524509-137.000254 147.122442-162.651322 174.176383-6.389727 36.781891-27.934576 160.024776-42.930979 235.687746-5.565411 28.016496-21.928847 50.738939-44.886809 62.345919-22.753163 11.504581-49.612544 11.135943-75.65273-1.049595-69.9542-32.829271-183.346256-88.544824-216.800164-105.015779-37.514047 4.546537-165.835946 19.967897-241.345317 27.601778-24.340355 2.483187-48.265991-6.128608-65.622702-23.556999-18.268066-18.334626-27.565938-44.502811-24.877952-70.010519 8.074198-76.722805 24.012676-205.095904 28.656492-242.266912-16.071597-33.878866-71.520912-151.069942-103.520746-221.966217-15.820719-34.92846-9.548751-60.937926-1.500153-76.594806 10.726345-20.863893 30.97584-35.635016 55.669474-40.545071 73.8761-14.422966 203.380713-36.97645 241.386276-43.560736 27.407219-26.193785 119.792023-114.298291 175.666296-165.462187 22.594444-20.710293 43.483936-26.229625 59.340494-26.229625 3.83998 0 7.388122 0.327678 10.593226 0.834555 16.429995 2.616307 39.935794 12.718015 58.608338 45.900564 38.123324 67.532452 100.320763 183.689294 118.281631 217.307041 32.470873 17.955748 142.468386 78.960233 209.406921 118.087072l0.01536 0.01024z m-36.095814 61.624002c-78.028398-45.613845-215.735209-121.558414-217.112482-122.31617a35.655496 35.655496 0 0 1-14.274486-14.489525c-0.778236-1.459192-78.166637-146.707724-122.45953-225.176441-3.368943-5.980129-6.210528-8.970194-7.65948-10.127307-1.735671 0.650237-5.340132 2.600947-10.373067 7.214042-65.264304 59.770572-181.241947 170.81768-182.40418 171.928715a35.752776 35.752776 0 0 1-18.657184 9.415632c-1.633272 0.276479-164.520113 28.333934-250.443511 45.106967-3.333103 0.660477-5.478372 2.216949-5.939169 3.112944-0.522237 1.018875-0.998395 5.601251 3.056624 14.550965 37.247808 82.533975 106.71561 228.693862 107.417047 230.163295a35.686216 35.686216 0 0 1 3.174384 19.788698c-0.204799 1.607672-20.387735 161.898686-29.788007 251.165427-0.435198 4.157419 1.351673 9.036753 4.454377 12.144577 2.416628 2.431987 4.710376 2.969585 6.604766 2.969585 0.430078 0 0.829436-0.0256 1.213434-0.06656 87.961147-8.893394 248.840958-28.528493 250.45375-28.723052a35.931975 35.931975 0 0 1 20.152216 3.425262c1.423353 0.701436 143.369502 70.758036 225.058681 109.106638 5.596131 2.626546 10.362827 3.338223 13.076413 1.98143 3.087344-1.561592 5.85725-6.487007 7.060444-12.528575 17.51031-88.370745 44.180252-243.034908 44.441371-244.581141a35.691336 35.691336 0 0 1 9.313232-18.534304c1.085434-1.141754 109.019599-114.718129 168.95913-180.796509 6.727645-7.423962 8.330197-12.129218 8.396756-12.917694-0.358398-1.192954-3.645421-5.91869-13.721529-11.816899z"  horiz-adv-x="1024" />

    
    <glyph glyph-name="guanbi1" unicode="&#59150;" d="M512 896C229.376 896 0 666.624 0 384s229.376-512 512-512 512 229.376 512 512S794.624 896 512 896z m210.944-713.216c-10.752-10.752-29.696-10.752-40.448 0l-161.28 161.28-160.768-161.28c-10.752-10.752-29.696-10.752-40.448 0-10.752 10.752-10.752 29.696 0 40.448L481.28 384 320.512 544.768c-10.752 10.752-10.752 29.696 0 40.448 10.752 10.752 29.696 10.752 40.448 0L521.728 424.96l160.256 160.256c11.264 10.752 29.696 10.752 40.448 0 10.752-10.752 10.752-29.696 0-40.448L562.176 384l161.28-161.28c10.24-10.24 10.24-29.184-0.512-39.936z"  horiz-adv-x="1024" />

    
    <glyph glyph-name="diannaodenglu" unicode="&#58981;" d="M758.7 646.1H271.2v-247l94.3-94.3h393.2V646.1z m0 0M840.1 798.3H189.8c-46.6 0-84.3-37.8-84.3-84.5v-150.2l58.3-58.3v233h703.6v-526.9H457.7L690-20.9h88c16 0 29 13 29 29s-13 29-29 29H632.2V153.8h207.9c46.6 0 84.3 37.8 84.3 84.5V713.8c0 46.7-37.7 84.5-84.3 84.5z m0 0"  horiz-adv-x="1024" />

    
    <glyph glyph-name="shousuozuobian" unicode="&#58892;" d="M748.7 875c-17.8 2-35.8 3-54.2 3-271.2 0-491-219.8-491-491s219.8-491 491-491c18.3 0 36.4 1 54.2 3V875zM627.5 189.8c-8.3-8.3-22-8.3-30.4 0L404.9 382c-4.3 4.3-6.4 10-6.2 15.6-0.1 5.7 1.9 11.3 6.2 15.6l192.2 192.2c8.3 8.3 22 8.3 30.4 0 8.3-8.3 8.3-22 0-30.4L450 397.7l177.5-177.5c8.4-8.4 8.4-22.1 0-30.4z"  horiz-adv-x="1024" />

    
    <glyph glyph-name="shousuoyoubian" unicode="&#58893;" d="M203.5-101.1c17.8-2 35.8-3 54.2-3 271.2 0 491 219.8 491 491S528.8 878 257.7 878c-18.3 0-36.4-1-54.2-3v-976.1z m121.1 321.2l177.5 177.5-177.5 177.6c-8.3 8.3-8.3 22 0 30.4 8.3 8.3 22 8.3 30.4 0l192.2-192.2c4.3-4.3 6.4-10 6.2-15.6 0.1-5.7-1.9-11.4-6.2-15.6L355 189.8c-8.3-8.3-22-8.3-30.4 0-8.3 8.3-8.3 22 0 30.3z"  horiz-adv-x="1024" />

    
    <glyph glyph-name="shanchu" unicode="&#59030;" d="M799.2 21.6c0-34.4-28-62.4-62.368-62.4H287.2a62.496 62.496 0 0 0-62.4 62.4V684h574.4v-662.4zM349.6 796c0 7.2 5.6 12.8 12.8 12.8h300c7.2 0 12.768-5.6 12.768-12.8v-37.6H349.6V796z m636.8-37.6H749.6V796c0 48-39.2 87.2-87.2 87.2h-300a87.392 87.392 0 0 1-87.2-87.2v-37.6H37.6C16.8 758.4 0 741.6 0 720.8s16.8-37.6 37.6-37.6h112v-661.6A137.6 137.6 0 0 1 287.2-116h449.6a137.6 137.6 0 0 1 137.6 137.6V684h112c20.8 0 37.6 16.8 37.6 37.6s-16.8 36.8-37.6 36.8zM512 72c20.8 0 37.6 16.8 37.6 37.6v400c0 20.8-16.768 37.6-37.6 37.6-20.8 0-37.6-16.8-37.6-37.6v-400c0-20.8 16.8-37.6 37.6-37.6m-175.2 0c20.8 0 37.6 16.8 37.6 37.6v400c0 20.8-16.8 37.6-37.6 37.6s-37.6-16.8-37.6-37.6v-400c0.8-20.8 17.6-37.6 37.6-37.6m350.4 0c20.8 0 37.632 16.8 37.632 37.6v400c0 20.8-16.8 37.6-37.632 37.6-20.768 0-37.6-16.8-37.6-37.6v-400c0-20.8 16.8-37.6 37.6-37.6"  horiz-adv-x="1024" />

    
    <glyph glyph-name="icon-test" unicode="&#58931;" d="M512 288a96 96 0 1 0 0 192 96 96 0 0 0 0-192m0 256c-88.224 0-160-71.776-160-160s71.776-160 160-160 160 71.776 160 160-71.776 160-160 160M512 96c-212.064 0-384 256-384 288s171.936 288 384 288 384-256 384-288-171.936-288-384-288m0 640C265.248 736 64 452.992 64 384c0-68.992 201.248-352 448-352s448 283.008 448 352c0 68.992-201.248 352-448 352"  horiz-adv-x="1024" />

    
    <glyph glyph-name="icon-test1" unicode="&#58932;" d="M512 96c-66.112 0-128.32 24.896-182.656 60.096l94.976 94.976A156.256 156.256 0 0 1 512 224c88.224 0 160 71.776 160 160a156.256 156.256 0 0 1-27.072 87.68l101.536 101.536C837.28 497.376 896 402.656 896 384c0-32-171.936-288-384-288m96 288a96 96 0 0 0-96-96c-14.784 0-28.64 3.616-41.088 9.664l127.424 127.424c6.048-12.448 9.664-26.304 9.664-41.088M128 384c0 32 171.936 288 384 288 66.112 0 128.32-24.896 182.656-60.096L277.536 194.784C186.72 270.624 128 365.344 128 384m664.064 234.816l91.328 91.328-45.248 45.248-97.632-97.632C673.472 703.296 595.456 736 512 736 265.248 736 64 452.992 64 384c0-39.392 65.728-148.416 167.936-234.816l-91.328-91.328 45.248-45.248 97.632 97.632C350.528 64.704 428.544 32 512 32c246.752 0 448 283.008 448 352 0 39.392-65.728 148.416-167.936 234.816M512 544c-88.224 0-160-71.776-160-160 0-15.328 2.848-29.856 6.88-43.872l58.592 58.592a95.616 95.616 0 0 0 79.808 79.808l58.592 58.592A157.76 157.76 0 0 1 512 544"  horiz-adv-x="1024" />

    


  </font>
</defs>
</svg>
