<?xml version="1.0" encoding="utf-8"?>
<!-- Generator: Adobe Illustrator 21.0.0, SVG Export Plug-In . SVG Version: 6.00 Build 0)  -->
<svg version="1.1" id="图层_1" xmlns="http://www.w3.org/2000/svg" xmlns:xlink="http://www.w3.org/1999/xlink" x="0px" y="0px"
	 viewBox="0 0 200 200" style="enable-background:new 0 0 200 200;" xml:space="preserve">
<style type="text/css">
	.st0{fill:#979797;}
</style>
<title>关闭</title>
<desc>Created with Sketch.</desc>
<g id="关闭">
	<path id="形状结合" class="st0" d="M100,193.7c-53,0-96-43-96-96s43-96,96-96s96,42.7,96,96C196,150.7,153,193.7,100,193.7z
		 M100,181.7c46.4,0,84-37.6,84-84s-37.6-84-84-84s-84,37.6-84,84S53.6,181.7,100,181.7z M100,89.2l19.8-19.8c2.3-2.3,6.1-2.3,8.5,0
		c2.3,2.3,2.3,6.1,0,8.5l-19.8,19.8l19.8,19.8c2.3,2.3,2.3,6.1,0,8.5c-2.3,2.3-6.1,2.3-8.5,0L100,106.2L80.2,126
		c-2.3,2.3-6.1,2.3-8.5,0c-2.3-2.3-2.3-6.1,0-8.5l19.8-19.8L71.7,77.9c-2.3-2.3-2.3-6.1,0-8.5s6.1-2.3,8.5,0L100,89.2z"/>
</g>
</svg>
