<?xml version="1.0" encoding="UTF-8"?>
<svg width="200px" height="200px" viewBox="0 0 200 200" version="1.1" xmlns="http://www.w3.org/2000/svg" xmlns:xlink="http://www.w3.org/1999/xlink">
    <!-- Generator: Sketch 56.2 (81672) - https://sketch.com -->
    <title>热度</title>
    <desc>Created with Sketch.</desc>
    <g id="热度" stroke="none" stroke-width="1" fill="none" fill-rule="evenodd">
        <path d="M119.574786,54.8768635 C120.643918,60.9194915 122.238141,66.2921805 124.508722,71.2287176 C125.303303,68.7140952 126.343991,66.2592174 127.640036,63.9141778 C133.018878,54.1818063 142.349305,46.993774 155.537429,43.3294191 L163.197079,41.2011653 L163.143558,49.150809 C163.057022,62.0042463 165.464339,70.6507101 171.529255,83.9396766 C171.883741,84.7163978 173.102495,87.3660438 173.170559,87.5144869 C173.829665,88.9519506 174.327469,90.0534582 174.803323,91.134492 C179.037925,100.754565 181,108.034101 181,116.876312 C181,160.606002 144.698222,196 100.0001,196 C55.3016772,196 19,160.6061 19,116.876312 C19,96.0220336 28.9909105,74.7359249 45.3895066,66.5134382 L53.1902753,62.6020231 L54.0496862,71.2860643 C54.0543635,71.3333268 54.0682936,71.4613432 54.0925452,71.6645884 C54.1357036,72.0262854 54.1913336,72.4523928 54.2604839,72.9373594 C54.4614028,74.3464475 54.7290696,75.9262266 55.0714778,77.6318506 C56.044345,82.4779537 57.4082666,87.3159391 59.2090577,91.7791617 C58.9884485,78.1230074 59.6162475,68.8504436 61.9644014,58.3538236 C67.6379345,32.9922314 82.4739248,14.2926078 109.46464,4.36859337 L117.53521,1.40118586 L117.53521,10 C117.53521,11.0860147 117.534662,11.9706026 117.533089,13.85327 C117.514177,36.4889452 117.840161,45.0729393 119.574786,54.8768635 Z M160.612445,88.9219708 C155.243198,77.1573004 152.348347,68.2765507 151.450058,57.5907897 C145.29789,60.5378227 140.937468,64.6620364 138.14274,69.7187629 C135.064767,75.2879877 134.009935,81.9040665 134.793852,87.9850408 L137.321897,107.595496 L124.32215,92.696921 C115.350776,82.41513 110.247826,71.038027 107.758317,56.9675712 C106.00389,47.0517276 105.576761,38.6561105 105.535745,19.0994698 C87.752323,27.9786982 77.9006973,42.0838061 73.6749556,60.9735414 C71.2613512,71.7627355 70.8638428,81.4150438 71.3535544,97.7561747 C71.6158897,106.510012 71.6389497,108.732096 71.3526237,111.804732 L70.3214381,122.870644 L61.6354325,115.937315 C55.8530437,111.321707 51.4434884,104.586135 48.1015506,96.3207354 C46.2905885,91.8417993 44.8825959,87.1321341 43.8168869,82.3942661 C35.9522326,90.3558829 31,103.702856 31,116.876312 C31,153.909718 61.8620336,184 100.0001,184 C138.137866,184 169,153.90962 169,116.876312 C169,109.975648 167.443039,104.199132 163.820287,95.9690488 C163.373286,94.9535615 162.898405,93.902775 162.262553,92.5160282 C162.201032,92.3818539 160.975734,89.7179805 160.612445,88.9219708 Z M70.5532373,154.871422 C68.3735057,153.176066 67.9808415,150.034687 69.6761972,147.854956 C71.371553,145.675224 74.512932,145.28256 76.6926636,146.977916 C83.310942,152.125493 91.4327795,154.9626 100,154.9626 C109.019157,154.9626 117.540771,151.816473 124.322396,146.16025 C126.443032,144.391531 129.595976,144.676816 131.364695,146.797451 C133.133414,148.918087 132.848129,152.071031 130.727494,153.83975 C122.164501,160.981726 111.381885,164.9626 100,164.9626 C89.1891906,164.9626 78.9117012,161.372484 70.5532373,154.871422 Z" id="形状结合" fill="#979797" fill-rule="nonzero"></path>
    </g>
</svg>