<?xml version="1.0" encoding="UTF-8"?>
<svg width="200px" height="200px" viewBox="0 0 200 200" version="1.1" xmlns="http://www.w3.org/2000/svg" xmlns:xlink="http://www.w3.org/1999/xlink">
    <!-- Generator: Sketch 56.2 (81672) - https://sketch.com -->
    <title>增加</title>
    <desc>Created with Sketch.</desc>
    <g id="增加" stroke="none" stroke-width="1" fill="none" fill-rule="evenodd">
        <path d="M100,196 C46.980664,196 4,153.019336 4,100 C4,46.980664 46.980664,4 100,4 C153.019336,4 196,46.980664 196,100 C196,153.019336 153.019336,196 100,196 Z M108,92 L108,58 C108,53.581722 104.418278,50 100,50 C95.581722,50 92,53.581722 92,58 L92,92 L58,92 C53.581722,92 50,95.581722 50,100 C50,104.418278 53.581722,108 58,108 L92,108 L92,142 C92,146.418278 95.581722,150 100,150 C104.418278,150 108,146.418278 108,142 L108,108 L142,108 C146.418278,108 150,104.418278 150,100 C150,95.581722 146.418278,92 142,92 L108,92 Z" id="形状结合" fill="#4491FF" fill-rule="nonzero"></path>
    </g>
</svg>