<?xml version="1.0" encoding="utf-8"?>
<!-- Generator: Adobe Illustrator 21.0.0, SVG Export Plug-In . SVG Version: 6.00 Build 0)  -->
<svg version="1.1" id="图层_1" xmlns="http://www.w3.org/2000/svg" xmlns:xlink="http://www.w3.org/1999/xlink" x="0px" y="0px"
	 viewBox="0 0 200 200" style="enable-background:new 0 0 200 200;" xml:space="preserve">
<style type="text/css">
	.st0{fill:#FF4A4A;}
	.st1{fill:#FF0303;}
	.st2{fill:#FFFFFF;}
</style>
<title>精品</title>
<desc>Created with Sketch.</desc>
<g>
	<polygon id="路径" class="st0" points="194.6,199.3 100.2,178.3 5.7,199.3 5.7,0 194.6,0 	"/>
	<polygon id="路径_1_" class="st1" points="194.6,199.3 100.2,178.3 100.2,0 194.6,0 	"/>
	<g>
		<path class="st2" d="M60.9,164.7H47.2v-56.4c-4.5,9.2-9.9,18.1-16.3,26.7l-8.2-12.2c6.8-8.6,12.4-17.2,16.8-25.8
			c1.9-4,3.7-8.6,5.4-13.9H23.5V70.4h23.7V20.2h13.7v50.1h18.8v12.7H60.9v14.1l8.7-4.6c5.2,7.7,9.9,15.8,14.3,24.1l-12.2,5.8
			c-2.9-6.6-6.5-14.1-10.9-22.5V164.7z M36.3,31.2C37,34,38,38.8,39.5,45.6c1.6,6.5,2.7,12.4,3.1,17.7l-12.7,1.1
			c-0.3-2.1-1-6.6-2.1-13.4c-1.4-6.8-2.9-12.7-4.3-17.7L36.3,31.2z M81.9,33.8c-0.2,2.5-0.9,7.2-2,13.9C78.9,54.3,77.8,60,76.7,65
			l-11.9-2.8c0.4-2.1,1.4-6.5,2.8-13c1.1-6.6,1.9-12.4,2.3-17.4L81.9,33.8z M121,60.7H92.7V49.9H121v-7.5H87.4V30.3H121V20.2h13.7
			v10.1h35.9v12.1h-35.9v7.5h32v10.9h-32v7.5h39.9v12.1H86.1V68.2H121V60.7z M107,165.3H93.3v-66v-6.1v-6H152h6.8h6.9v65
			c0,8.6-4.6,12.8-13.8,12.8h-10.4l-3.8-12.7h8.7c3.7,0,5.6-1.7,5.6-5.2v-7.2h-45V165.3z M152,108.9v-9.6h-45v9.6H152z M152,128.5
			v-8.1h-45v8.1H152z"/>
	</g>
</g>
</svg>
