<?xml version="1.0" encoding="utf-8"?>
<!-- Generator: Adobe Illustrator 21.0.0, SVG Export Plug-In . SVG Version: 6.00 Build 0)  -->
<svg version="1.1" id="图层_1" xmlns="http://www.w3.org/2000/svg" xmlns:xlink="http://www.w3.org/1999/xlink" x="0px" y="0px"
	 viewBox="0 0 200 200" style="enable-background:new 0 0 200 200;" xml:space="preserve">
<style type="text/css">
	.st0{fill:#FF4A4A;}
	.st1{fill:#FF0303;}
	.st2{fill:#FFFFFF;}
</style>
<title>精品</title>
<desc>Created with Sketch.</desc>
<g>
	<polygon id="路径" class="st0" points="194.6,199.3 100.2,178.3 5.7,199.3 5.7,0 194.6,0 	"/>
	<polygon id="路径_1_" class="st1" points="194.6,199.3 100.2,178.3 100.2,0 194.6,0 	"/>
	<g>
		<path class="st2" d="M72.9,149.2h-9.3v-44.3c-3.1,7.2-6.8,14.2-11.1,21l-5.6-9.6c4.6-6.7,8.5-13.5,11.4-20.3
			c1.3-3.1,2.5-6.8,3.7-10.9H47.4v-10h16.2V35.9h9.3v39.3h12.8v10H72.9v11l5.9-3.6c3.5,6.1,6.8,12.4,9.8,18.9l-8.3,4.6
			c-1.9-5.2-4.4-11.1-7.4-17.6V149.2z M56.2,44.5c0.4,2.2,1.2,5.9,2.1,11.3c1.1,5.1,1.8,9.8,2.1,13.9l-8.6,0.8
			c-0.2-1.7-0.7-5.2-1.5-10.6c-1-5.4-1.9-10-2.9-13.9L56.2,44.5z M87.2,46.5c-0.2,2-0.6,5.6-1.3,10.9c-0.7,5.1-1.5,9.6-2.2,13.6
			l-8.1-2.2c0.3-1.7,0.9-5.1,1.9-10.2c0.7-5.2,1.3-9.8,1.6-13.7L87.2,46.5z M113.9,67.6H94.5v-8.5h19.3v-5.9H91v-9.5h22.9v-7.9h9.3
			v7.9h24.5v9.5h-24.5v5.9h21.8v8.5h-21.8v5.9h27.2V83H90.1v-9.5h23.8V67.6z M104.3,149.7H95V97.9v-4.8v-4.7h40h4.6h4.7v51
			c0,6.7-3.1,10.1-9.4,10.1h-7.1l-2.6-10h5.9c2.5,0,3.8-1.4,3.8-4.1v-5.6h-30.6V149.7z M135,105.4v-7.6h-30.6v7.6H135z M135,120.8
			v-6.4h-30.6v6.4H135z"/>
	</g>
</g>
</svg>
