<?xml version="1.0" encoding="UTF-8"?>
<svg width="200px" height="200px" viewBox="0 0 200 200" version="1.1" xmlns="http://www.w3.org/2000/svg" xmlns:xlink="http://www.w3.org/1999/xlink">
    <!-- Generator: Sketch 56.2 (81672) - https://sketch.com -->
    <title>精品</title>
    <desc>Created with Sketch.</desc>
    <g id="精品" stroke="none" stroke-width="1" fill="none" fill-rule="evenodd">
        <polygon id="路径" fill="#FFA539" fill-rule="nonzero" points="162.248443 165.203615 100.153628 151.404767 38.0588136 165.203615 38.0588136 34.1145615 162.248443 34.1145615"></polygon>
        <polygon id="路径" fill="#FF7C3B" fill-rule="nonzero" points="162.248443 165.203615 100.153628 151.404767 100.153628 34.1145615 162.248443 34.1145615"></polygon>
        <path d="M141.143105,91.4970696 C137.769287,87.2677228 134.429966,83.0107783 131.125142,78.7331355 C129.58657,76.7461015 128.0342,74.7590674 126.48183,72.7789328 C126.038027,72.0916412 125.263954,71.6901729 124.4465,71.7233208 L77.7580983,71.7233208 C77.1464129,71.6980881 76.5517119,71.9279725 76.1160355,72.3580678 L76.0401418,72.4270621 C75.923827,72.5319064 75.8175731,72.6473998 75.7227683,72.7720333 L69.4511921,81.996563 C66.6086295,86.1707144 64.4422103,89.3375499 62.9312365,91.4901702 C62.3516849,92.3318998 62.4344779,93.1529313 63.1658169,93.9532645 C63.2141129,93.9532645 63.2555094,93.9601639 63.2762077,93.9877617 C63.3107048,94.00846 63.3245037,94.0429571 63.3245037,94.091253 C67.3882643,98.7345654 73.4390591,105.696084 81.4768878,114.989608 C89.5078171,124.276232 95.5379136,131.210153 99.5464788,135.812069 C100.070835,136.426118 100.671085,136.674497 101.347229,136.584804 C101.616424,136.583475 101.88223,136.524668 102.126863,136.412319 C102.426699,136.270327 102.692565,136.065634 102.906498,135.812069 C105.976742,132.389955 109.971508,127.981223 114.890798,122.578974 C119.810087,117.183624 124.425801,112.098749 128.744841,107.317448 C133.06388,102.529248 137.079345,98.1274158 140.770536,94.0843536 L140.929223,93.8014772 C141.660562,93.0080435 141.743355,92.2284085 141.163803,91.4832707 L141.143105,91.4832707 L141.143105,91.4970696 Z M134.588653,90.4414578 L120.237851,90.4414578 L121.80402,86.6053781 C122.928626,83.8525079 124.046333,81.0996379 125.150241,78.3398683 C128.26878,82.3898302 131.414918,86.425993 134.588653,90.4414578 L134.588653,90.4414578 Z M101.174743,76.9392853 C104.617555,81.4377096 108.053469,85.9361339 111.482482,90.4414578 L90.6324232,90.4414578 C94.1742519,85.958344 97.6907145,81.455248 101.181642,76.9323858 L101.174743,76.9392853 L101.174743,76.9392853 Z M113.510913,94.6639052 L109.260868,105.14413 L105.507581,114.320364 C104.083594,117.801598 102.666909,121.285814 101.257536,124.772991 C97.3015945,114.703193 93.26761,104.664229 89.1559466,94.6570057 L113.510913,94.6570057 L113.510913,94.6639052 L113.510913,94.6639052 Z M115.93951,88.8269926 C114.580323,87.0883378 111.303097,82.7968961 106.094032,75.9526676 L121.169273,75.9526676 C119.430844,80.247004 117.685288,84.5384516 115.93261,88.8269926 L115.93951,88.8269926 L115.93951,88.8269926 Z M86.5824615,88.3992284 C84.8263745,84.2308548 83.030141,80.0795085 81.1940114,75.9457683 L96.2554538,75.9457683 C92.8816355,80.2579083 89.6458057,84.4113613 86.5824615,88.3992284 L86.5824615,88.3992284 Z M77.2820381,78.4778567 C78.9516987,82.2794392 80.6696552,86.2673063 82.4428072,90.4483571 L69.1683157,90.4483571 C71.7142031,86.736467 74.4256766,82.7486 77.2820381,78.4778567 L77.2820381,78.4778567 Z M84.2366575,94.6639052 C88.477132,104.987681 92.6146916,115.353429 96.6487208,125.759608 C87.6863692,115.382875 78.7102188,105.013041 69.7133702,94.6639052 L84.2504562,94.6639052 L84.2366575,94.6639052 L84.2366575,94.6639052 Z M118.512995,94.6639052 L134.195385,94.6639052 C129.614168,99.7280823 120.120561,110.187609 105.700765,126.042485 L107.887882,120.729929 C108.667517,118.832587 109.343661,117.162926 109.916313,115.707148 C110.640752,113.8857 111.38589,112.064252 112.144827,110.256603 C113.593706,106.779294 115.008088,103.295085 116.394872,99.8039759 C117.38149,97.3270827 118.085231,95.6091262 118.506096,94.6708046 L118.512995,94.6708046 L118.512995,94.6639052 Z" id="形状" fill="#FFFFFF" fill-rule="nonzero"></path>
    </g>
</svg>