<?xml version="1.0" encoding="utf-8"?>
<!-- Generator: Adobe Illustrator 21.0.0, SVG Export Plug-In . SVG Version: 6.00 Build 0)  -->
<svg version="1.1" id="图层_1" xmlns="http://www.w3.org/2000/svg" xmlns:xlink="http://www.w3.org/1999/xlink" x="0px" y="0px"
	 viewBox="0 0 200 200" style="enable-background:new 0 0 200 200;" xml:space="preserve">
<style type="text/css">
	.st0{fill:#FFFFFF;}
</style>
<title>音量</title>
<desc>Created with Sketch.</desc>
<g id="音量">
	<path id="形状" class="st0" d="M139.5,57.4c-1.3-1.7-2.4-3-4-4.1c-1.4-0.8-3.1-1.2-4.8-0.9c-4,2-3.9,4.6-3.2,8.7
		c0.8,2.5,2.1,3.7,3.9,5.4c7.3,7.8,11.7,18.1,11.7,29.6c0,12.5-3.8,23.5-11.6,31.7c-1.3,2.1-4.4,3.4-5.2,5.6
		c-1.4,3.9,0.4,7.4,4.5,7.4c2.1,0,3.5-0.9,4.8-2.2c1.5-1.3,2.5-2,3.9-3.8c8.6-10.6,14.8-23.9,14.8-38.8
		C154.3,81.2,148.8,67.6,139.5,57.4L139.5,57.4z M167.3,30.3c-2.4-2.3-5.9-5.4-8.7-4.3c-2.7,1-5.3,4.5-4,7.5
		c0.7,1.7,3.2,4.8,4.6,6.5c12.7,13.5,19.7,31.6,19.7,51.7c0,22.4-9.9,42.6-25.6,56.2c-2.2,2.3-3.3,3.8-4.5,6.7
		c-1,2.4,1.1,7.8,4.2,7.4c2-0.3,4.1-1.2,6-3c0.1-0.1,0.1-0.2,0.2-0.2c18.9-18.2,30.5-40.3,30.5-67.2
		C189.9,67.9,181.5,47.2,167.3,30.3L167.3,30.3z M85.5,17.5L48.3,55.6H25.6c-9.7,0-14.5,5.2-14.5,14.5v48.3
		c0,9.1,4.9,14.5,14.5,14.5h21.2l37.6,37.9c12.2,10,28.1,5.8,28.1-10.9V28.6C112.5,11.7,96,7.6,85.5,17.5z M102.2,156.7
		c0.3,16.5-12.5,2.5-17.6-2.4c-8.7-8.6-20.9-20.9-31.8-32.4H30.9c-7.4,0-9.7-2.8-9.7-10.1l0.4-36.4c0-7.1,2.4-9.3,9.7-9.3h23.4
		c10.8-11.6,26.5-27.4,35.2-35.9c4.9-4.8,12.2-11.1,12.2,0.3L102.2,156.7L102.2,156.7z"/>
</g>
</svg>
