<?xml version="1.0" encoding="UTF-8"?>
<svg width="200px" height="200px" viewBox="0 0 200 200" version="1.1" xmlns="http://www.w3.org/2000/svg" xmlns:xlink="http://www.w3.org/1999/xlink">
    <!-- Generator: Sketch 56.2 (81672) - https://sketch.com -->
    <title>选课</title>
    <desc>Created with Sketch.</desc>
    <g id="选课" stroke="none" stroke-width="1" fill="none" fill-rule="evenodd">
        <path d="M94,158.915763 C94.198162,159.146236 94.4061411,159.37106 94.6239369,159.589673 L106,171.009838 L106,178 L112.963168,178 L121.039988,186.108132 C122.174077,187.49762 123.398053,188.797114 124.700897,190 L66,190 C62.6862915,190 60,187.313708 60,184 C60,180.686292 62.6862915,178 66,178 L94,178 L94,158.915768 Z M91.4165602,154 L8,154 C3.581722,154 5.41083001e-16,150.418278 0,146 L0,16 C-5.41083001e-16,11.581722 3.581722,8 8,8 L192,8 C196.418278,8 200,11.581722 200,16 L200,146 C200,150.418278 196.418278,154 192,154 L188,154 L188,138 L188,24 C188,21.790861 186.209139,20 184,20 L16,20 C13.790861,20 12,21.790861 12,24 L12,138 C12,140.209139 13.790861,142 16,142 L94.6091914,142 C91.3859138,145.246585 90.322018,149.854728 91.4165602,154 Z M112.218979,142 L114.999981,142 L114.991434,144.784424 L112.218979,142 Z M48,118 C39.163444,118 32,110.836556 32,102 C32,93.163444 39.163444,86 48,86 C56.836556,86 64,93.163444 64,102 C64,110.836556 56.836556,118 48,118 Z M48,108 C51.3137085,108 54,105.313708 54,102 C54,98.6862915 51.3137085,96 48,96 C44.6862915,96 42,98.6862915 42,102 C42,105.313708 44.6862915,108 48,108 Z M82,54 L150,54 C153.313708,54 156,56.6862915 156,60 C156,63.3137085 153.313708,66 150,66 L82,66 C78.6862915,66 76,63.3137085 76,60 C76,56.6862915 78.6862915,54 82,54 Z M82,96 L110,96 C113.313708,96 116,98.6862915 116,102 C116,105.313708 113.313708,108 110,108 L82,108 C78.6862915,108 76,105.313708 76,102 C76,98.6862915 78.6862915,96 82,96 Z M44.3431458,56.4852814 L62.0208153,38.8076118 C63.9734367,36.8549904 67.1392616,36.8549904 69.0918831,38.8076118 C71.0445046,40.7602333 71.0445046,43.9260582 69.0918831,45.8786797 L47.8786797,67.0918831 C45.9260582,69.0445046 42.7602333,69.0445046 40.8076118,67.0918831 L30.9081169,57.1923882 C28.9554954,55.2397667 28.9554954,52.0739418 30.9081169,50.1213203 C32.8607384,48.1686989 36.0265633,48.1686989 37.9791847,50.1213203 L44.3431458,56.4852814 Z M175.80875,127.421296 C180.278417,127.421296 183.930279,131.110585 184,135.551258 L184,163.929106 L183.952891,163.929106 C183.110589,181.785717 168.342972,196 150.275866,196 C139.676422,196 130.198163,191.089714 124.01751,183.429367 L97.4576578,156.76655 C94.1807807,153.477372 94.1807807,148.095593 97.4576578,144.808293 C99.0348531,143.228719 101.178394,142.340706 103.414074,142.340706 C105.649755,142.340706 107.793296,143.228719 109.370491,144.808293 L118.96181,154.44102 L118.96181,96.1525028 C118.96181,91.6648693 122.613672,88 127.08334,88 C131.554892,88 135.20487,91.6648693 135.20487,96.1525028 L135.20487,120.256862 C135.20487,115.771107 138.854847,112.104359 143.324515,112.104359 C147.796067,112.104359 151.446045,115.771106 151.446045,120.256862 L151.446045,126.061293 C151.446045,121.57366 155.097907,117.90879 159.56569,117.90879 C164.037242,117.90879 167.68722,121.57366 167.68722,126.061293 L167.68722,135.573799 C167.68722,131.086165 171.339082,127.421296 175.80875,127.421296 Z" id="形状结合" fill="#979797"></path>
    </g>
</svg>