<?xml version="1.0" encoding="UTF-8"?>
<svg width="200px" height="200px" viewBox="0 0 200 200" version="1.1" xmlns="http://www.w3.org/2000/svg" xmlns:xlink="http://www.w3.org/1999/xlink">
    <!-- Generator: Sketch 56.2 (81672) - https://sketch.com -->
    <title>应用</title>
    <desc>Created with Sketch.</desc>
    <g id="应用" stroke="none" stroke-width="1" fill="none" fill-rule="evenodd">
        <path d="M103,1.73205081 L183.60254,48.2679492 C185.458947,49.339746 186.60254,51.3205081 186.60254,53.4641016 L186.60254,146.535898 C186.60254,148.679492 185.458947,150.660254 183.60254,151.732051 L103,198.267949 C101.143594,199.339746 98.8564065,199.339746 97,198.267949 L16.3974596,151.732051 C14.5410532,150.660254 13.3974596,148.679492 13.3974596,146.535898 L13.3974596,53.4641016 C13.3974596,51.3205081 14.5410532,49.339746 16.3974596,48.2679492 L97,1.73205081 C98.8564065,0.660254038 101.143594,0.660254038 103,1.73205081 Z M103,13.7320508 C101.143594,12.660254 98.8564065,12.660254 97,13.7320508 L26.7897645,54.2679492 C24.933358,55.339746 23.7897645,57.3205081 23.7897645,59.4641016 L23.7897645,140.535898 C23.7897645,142.679492 24.933358,144.660254 26.7897645,145.732051 L97,186.267949 C98.8564065,187.339746 101.143594,187.339746 103,186.267949 L173.210236,145.732051 C175.066642,144.660254 176.210236,142.679492 176.210236,140.535898 L176.210236,59.4641016 C176.210236,57.3205081 175.066642,55.339746 173.210236,54.2679492 L103,13.7320508 Z M94.3225118,106.209842 L51.0010019,81.1981561 C48.1312461,79.5413019 47.1479952,75.8717594 48.8048494,73.0020037 C50.4617037,70.132248 54.1312461,69.148997 57.0010019,70.8058513 L100.257964,95.7802698 L143.51666,70.8048494 C146.386416,69.1479952 150.055959,70.1312461 151.712813,73.0010019 C153.369667,75.8707576 152.386416,79.5403 149.51666,81.1971543 L106.322512,106.135308 L106.322512,153.805851 C106.322512,157.11956 103.63622,159.805851 100.322512,159.805851 C97.0088033,159.805851 94.3225118,157.11956 94.3225118,153.805851 L94.3225118,106.209842 Z" id="形状结合" fill="#979797"></path>
    </g>
</svg>