<?xml version="1.0" encoding="UTF-8"?>
<svg width="200px" height="200px" viewBox="0 0 200 200" version="1.1" xmlns="http://www.w3.org/2000/svg" xmlns:xlink="http://www.w3.org/1999/xlink">
    <!-- Generator: Sketch 54.1 (76490) - https://sketchapp.com -->
    <title>node</title>
    <desc>Created with Sketch.</desc>
    <g id="node" stroke="none" stroke-width="1" fill="none" fill-rule="evenodd">
        <g id="书" transform="translate(40.000000, 35.000000)" fill-rule="nonzero">
            <polygon id="路径" fill="#A3D4FF" points="156.360462 121.96606 95.1684086 121.96606 89.8703953 127.264073 68.6783424 127.264073 63.6452297 121.96606 2.71807734 121.96606 2.71807734 26.6018213 156.360462 26.6018213"></polygon>
            <path d="M91.1948986,129.913079 L67.8836402,129.913079 L62.5856271,124.615066 L0.0690707031,124.615066 L0.0690707031,23.9528146 L159.009468,23.9528146 L159.009468,124.615066 L96.4929119,124.615066 L91.1948986,129.913079 Z M70.0028457,124.615066 L89.0756934,124.615066 L94.3737064,119.317053 L153.711455,119.317053 L153.711455,29.2508277 L5.36708398,29.2508277 L5.36708398,119.317053 L64.7048324,119.317053 L70.0028457,124.615066 Z" id="形状" fill="#2A5082"></path>
            <path d="M84.8372826,116.668046 L79.5392695,116.668046 L79.5392695,34.548841 C79.5392695,26.0720197 84.8372828,18.6548014 95.4333092,18.6548014 L143.115428,18.6548014 L143.115428,111.370033 L95.4333092,111.370033 C90.1352959,111.370033 86.6915873,112.694537 84.8372826,116.668046 Z" id="路径" fill="#FFFFFF"></path>
            <path d="M86.4266867,119.317053 L76.8902629,119.317053 L76.8902629,34.548841 C76.8902629,23.4230133 84.3074814,16.0057947 95.4333092,16.0057947 L145.764435,16.0057947 L145.764435,114.01904 L95.4333092,114.01904 C89.8703953,114.01904 88.2809912,115.873344 87.2213887,117.99255 L86.4266867,119.317053 L86.4266867,119.317053 Z M82.1882762,114.01904 L83.2478787,114.01904 C86.4266867,109.250828 91.7247,108.721026 95.4333092,108.721027 L140.466422,108.721027 L140.466422,21.303808 L95.4333092,21.303808 C85.6319848,21.303808 82.188276,28.1912252 82.1882762,34.548841 L82.1882762,114.01904 Z" id="形状" fill="#2A5082"></path>
            <path d="M74.2412563,116.668046 L79.5392695,116.668046 L79.5392695,34.548841 C79.5392695,26.0720197 74.2412563,18.6548014 63.6452297,18.6548014 L15.9631105,18.6548014 L15.9631105,111.370033 L63.6452297,111.370033 C68.6783422,111.370033 72.122051,112.694537 74.2412563,116.668046 Z" id="路径" fill="#FFFFFF"></path>
            <path d="M82.1882762,119.317053 L72.6518521,119.317053 L71.8571502,117.99255 C70.7975475,115.873344 69.2081436,114.01904 63.6452297,114.01904 L13.3141039,114.01904 L13.3141039,16.0057947 L63.6452297,16.0057947 C74.7710574,16.0057947 82.188276,23.4230133 82.1882762,34.548841 L82.1882762,119.317053 Z M75.5657596,114.01904 L76.6253621,114.01904 L76.6253621,34.548841 C76.6253621,28.1912252 73.1816535,21.3038078 63.3803291,21.303808 L18.3472164,21.303808 L18.3472164,108.721027 L63.3803291,108.721027 C67.3538391,108.721027 72.3869516,109.250828 75.5657596,114.01904 L75.5657596,114.01904 Z" id="形状" fill="#2A5082"></path>
            <path d="M74.2412563,116.668046 L79.5392695,116.668046 L79.5392695,34.548841 C79.5392695,26.0720197 75.8306604,17.330298 67.3538391,14.4163908 L29.2081436,2.76076152 L29.2081436,95.4759934 L67.3538391,106.866722 C71.8571504,108.721027 73.1816537,112.164735 74.2412563,116.668046 L74.2412563,116.668046 Z" id="路径" fill="#FFFFFF"></path>
            <path d="M79.5392695,119.317053 L74.2412562,119.317053 C72.9167529,119.317053 71.8571502,118.522351 71.5922496,117.197848 C70.5326469,112.694536 69.7379449,110.840232 66.5591369,109.515729 L28.4134416,98.125 C27.3538389,97.8600994 26.5591369,96.8004967 26.5591369,95.4759934 L26.5591369,2.76076152 C26.5591369,1.96605957 26.8240375,1.17135762 27.6187396,0.64155625 C28.4134416,0.111754883 29.2081436,0.111754883 30.0028457,0.111754883 L68.148541,11.5024834 C76.8902629,14.4163906 82.1882762,23.1581125 82.1882762,34.2839404 L82.1882762,116.403146 C82.1882762,117.99255 80.8637729,119.317053 79.5392695,119.317053 L79.5392695,119.317053 Z M76.0955609,114.01904 L76.6253621,114.01904 L76.6253621,34.548841 C76.6253621,31.1051324 75.8306602,20.2442053 66.2942363,16.8004967 L31.5922496,6.4693709 L31.5922496,93.6216887 L67.8836402,104.482616 C73.1816535,106.601821 75.0359582,110.04553 76.0955609,114.01904 Z" id="形状" fill="#2A5082"></path>
        </g>
        <rect id="矩形" fill="#8F8F93" x="0" y="-1.42108547e-14" width="4" height="200"></rect>
        <rect id="矩形" fill="#8F8F93" x="4" y="98" width="30" height="4"></rect>
    </g>
</svg>