<?xml version="1.0" encoding="UTF-8"?>
<svg width="200px" height="200px" viewBox="0 0 200 200" version="1.1" xmlns="http://www.w3.org/2000/svg" xmlns:xlink="http://www.w3.org/1999/xlink">
    <!-- Generator: Sketch 54.1 (76490) - https://sketchapp.com -->
    <title>未连接</title>
    <desc>Created with Sketch.</desc>
    <g id="未连接" stroke="none" stroke-width="1" fill="none" fill-rule="evenodd">
        <path d="M123.263602,161.143664 L124,163 L76,163 L84.7272727,141 L36.819426,141 C32.3618323,141 30.7454011,140.535872 29.1157715,139.664336 C27.4861419,138.792801 26.207199,137.513858 25.3356635,135.884229 C24.4641281,134.254599 24,132.638168 24,128.180574 L24,39.819426 C24,35.3618323 24.4641281,33.7454011 25.3356635,32.1157715 C26.207199,30.4861419 27.4861419,29.207199 29.1157715,28.3356635 C30.7454011,27.4641281 32.3618323,27 36.819426,27 L163.180574,27 C167.638168,27 169.254599,27.4641281 170.884229,28.3356635 C172.513858,29.207199 173.792801,30.4861419 174.664336,32.1157715 C175.535872,33.7454011 176,35.3618323 176,39.819426 L176,81.008379 C172.919816,78.7925813 169.566407,76.9327471 166,75.4891023 L166,43.409713 C166,41.1809162 165.767936,40.3727006 165.332168,39.5578857 C164.896401,38.7430709 164.256929,38.1035995 163.442114,37.6678318 C162.627299,37.232064 161.819084,37 159.590287,37 L40.409713,37 C38.1809162,37 37.3727006,37.232064 36.5578857,37.6678318 C35.7430709,38.1035995 35.1035995,38.7430709 34.6678318,39.5578857 C34.232064,40.3727006 34,41.1809162 34,43.409713 L34,119 L100.01021,119 C100.003414,119.332514 100,119.665858 100,120 C100,137.461074 109.323446,152.744541 123.263602,161.143664 Z M148,158 C127.01318,158 110,140.98682 110,120 C110,99.0131795 127.01318,82 148,82 C168.98682,82 186,99.0131795 186,120 C186,140.98682 168.98682,158 148,158 Z M148,98 C147.882712,98 147.765452,98.0036608 147.648392,98.010977 C144.541387,98.2051649 142.180082,100.88131 142.37427,103.988315 L144,130 L152,130 L153.62573,103.988315 C153.633047,103.871256 153.636707,103.753996 153.636707,103.636707 C153.636707,100.52364 151.113067,98 148,98 Z M144,134 L144,142 L152,142 L152,134 L144,134 Z" id="形状结合" fill="#303030"></path>
    </g>
</svg>