<?xml version="1.0" encoding="UTF-8"?>
<svg width="200px" height="200px" viewBox="0 0 200 200" version="1.1" xmlns="http://www.w3.org/2000/svg" xmlns:xlink="http://www.w3.org/1999/xlink">
    <!-- Generator: Sketch 55.1 (78136) - https://sketchapp.com -->
    <title>画笔</title>
    <desc>Created with Sketch.</desc>
    <g id="画笔" stroke="none" stroke-width="1" fill="none" fill-rule="evenodd">
        <g id="编组" transform="translate(25.000000, 20.000000)">
            <circle id="椭圆形" stroke="#303030" stroke-width="10" cx="80" cy="80" r="80"></circle>
            <path d="M113.001733,77 L119.379549,70.7816291 C122.873484,67.3750433 122.873484,61.7514731 119.379549,58.3448873 L101.133449,40.5549393 C97.6395147,37.1483536 91.8717504,37.1483536 88.3778163,40.5549393 L82,46.7733102 L113.001733,77 L113.001733,77 Z M87.3871255,57.9764757 L102.006102,72.5635922 L110,80.5400679 L78.8457008,111.62647 C71.4540832,113.210838 69.8662542,109.605034 70.8518033,103.649994 C63.3506802,102.611959 57.7659025,99.2793224 56.4518372,90.7565127 L77.4768827,70.4328898 L75.5605374,68.5207209 L53.9879647,89.3906779 C48.5674451,89.827745 47.4176379,86.3312077 48.2389288,81.0864018 L79.393228,50 L87.3871255,57.9764757 L87.3871255,57.9764757 Z M42.6666667,100 L39,116.048309 L44.9516908,122 L61,118.333333 L42.6666667,100 Z" id="形状" fill="#303030" fill-rule="nonzero"></path>
        </g>
    </g>
</svg>