<?xml version="1.0" encoding="UTF-8"?>
<svg width="200px" height="200px" viewBox="0 0 200 200" version="1.1" xmlns="http://www.w3.org/2000/svg" xmlns:xlink="http://www.w3.org/1999/xlink">
    <!-- Generator: Sketch 55.1 (78136) - https://sketchapp.com -->
    <title>下载</title>
    <desc>Created with Sketch.</desc>
    <g id="下载" stroke="none" stroke-width="1" fill="none" fill-rule="evenodd">
        <g id="编组" transform="translate(25.000000, 20.000000)">
            <circle id="椭圆形" stroke="#303030" stroke-width="10" cx="80" cy="80" r="80"></circle>
            <path d="M62,44 L98,44 C99.1045695,44 100,44.8954305 100,46 L100,82 C100,83.1045695 100.895431,84 102,84 L113.429198,84 C113.981483,84 114.429198,84.4477153 114.429198,85 C114.429198,85.2803064 114.311552,85.5477442 114.104923,85.7371541 L80.6757246,116.380586 C80.2934034,116.731047 79.7065966,116.731047 79.3242754,116.380586 L45.8950772,85.7371541 C45.4879583,85.3639617 45.4604553,84.7313944 45.8336477,84.3242754 C46.0230577,84.1176464 46.2904955,84 46.5708019,84 L58,84 C59.1045695,84 60,83.1045695 60,82 L60,46 C60,44.8954305 60.8954305,44 62,44 Z" id="矩形" fill="#303030"></path>
        </g>
    </g>
</svg>