<?xml version="1.0" encoding="UTF-8"?>
<svg width="200px" height="200px" viewBox="0 0 200 200" version="1.1" xmlns="http://www.w3.org/2000/svg" xmlns:xlink="http://www.w3.org/1999/xlink">
    <!-- Generator: Sketch 55.1 (78136) - https://sketchapp.com -->
    <title>lock</title>
    <desc>Created with Sketch.</desc>
    <g id="lock" stroke="none" stroke-width="1" fill="none" fill-rule="evenodd">
        <g id="锁" transform="translate(31.000000, 5.000000)" fill-rule="nonzero">
            <path d="M68.75,1.5625 C42.34375,1.5625 20.9375,22.96875 20.9375,49.375 L20.9375,100.625 L116.5625,100.625 L116.5625,49.375 C116.5625,22.96875 95.15625,1.5625 68.75,1.5625 Z M99.53125,83.59375 L37.96875,83.59375 L37.96875,49.375 C37.96875,32.34375 51.71875,18.59375 68.75,18.59375 C85.78125,18.59375 99.53125,32.34375 99.53125,49.375 L99.53125,83.59375 Z" id="形状" fill="#FFFFFF"></path>
            <path d="M116.5625,65.46875 C111.40625,61.25 105.625,57.8125 99.53125,55.15625 L99.53125,74.375 L37.96875,74.375 L37.96875,55.15625 C31.875,57.8125 26.09375,61.40625 20.9375,65.46875 L20.9375,91.40625 L116.5625,91.40625 L116.5625,65.46875 Z" id="路径" fill="#111318"></path>
            <path d="M116.5625,102.1875 L20.9375,102.1875 C20,102.1875 19.375,101.5625 19.375,100.625 L19.375,49.375 C19.375,22.1875 41.5625,0 68.75,0 C95.9375,0 118.125,22.1875 118.125,49.375 L118.125,100.625 C118.125,101.5625 117.5,102.1875 116.5625,102.1875 Z M22.5,99.0625 L115,99.0625 L115,49.375 C115,23.90625 94.21875,3.125 68.75,3.125 C43.28125,3.125 22.5,23.90625 22.5,49.375 L22.5,99.0625 Z M99.53125,85.15625 L37.96875,85.15625 C37.03125,85.15625 36.40625,84.53125 36.40625,83.59375 L36.40625,49.375 C36.40625,31.5625 50.9375,17.03125 68.75,17.03125 C86.5625,17.03125 101.09375,31.5625 101.09375,49.375 L101.09375,83.59375 C101.09375,84.375 100.3125,85.15625 99.53125,85.15625 L99.53125,85.15625 Z M39.53125,82.03125 L97.96875,82.03125 L97.96875,49.375 C97.96875,33.28125 84.84375,20.15625 68.75,20.15625 C52.65625,20.15625 39.53125,33.28125 39.53125,49.375 L39.53125,82.03125 L39.53125,82.03125 Z" id="形状" fill="#A06214"></path>
            <path d="M1.71875,122.03125 C1.71875,159.051587 31.7296629,189.0625 68.75,189.0625 C105.770337,189.0625 135.78125,159.051587 135.78125,122.03125 C135.78125,85.0109129 105.770337,55 68.75,55 C31.7296629,55 1.71875,85.0109129 1.71875,122.03125 L1.71875,122.03125 Z" id="路径" fill="#F9AC4C"></path>
            <path d="M81.5625,114.375 C81.5625,107.34375 75.78125,101.5625 68.75,101.5625 C61.71875,101.5625 55.9375,107.34375 55.9375,114.375 C55.9375,119.0625 58.59375,123.125 62.34375,125.3125 L62.34375,141.09375 C62.34375,144.6875 65.15625,147.5 68.75,147.5 C72.34375,147.5 75.15625,144.6875 75.15625,141.09375 L75.15625,125.3125 C78.90625,123.125 81.5625,119.0625 81.5625,114.375 L81.5625,114.375 Z" id="路径" fill="#616465"></path>
            <path d="M67.1875,127.65625 C63.4375,125.46875 60.78125,121.40625 60.78125,116.71875 C60.78125,109.6875 66.5625,103.90625 73.59375,103.90625 C74.6875,103.90625 75.78125,104.0625 76.71875,104.375 C74.53125,102.65625 71.71875,101.5625 68.75,101.5625 C61.71875,101.5625 55.9375,107.34375 55.9375,114.375 C55.9375,119.0625 58.59375,123.125 62.34375,125.3125 L62.34375,141.09375 C62.34375,144.53125 65.15625,147.34375 68.59375,147.5 C67.65625,146.40625 67.1875,145 67.1875,143.59375 L67.1875,127.65625 Z" id="路径" fill="#111318"></path>
            <path d="M68.75,149.0625 C64.375,149.0625 60.78125,145.46875 60.78125,141.09375 L60.78125,126.09375 C56.875,123.4375 54.375,118.90625 54.375,114.21875 C54.375,106.25 60.78125,99.84375 68.75,99.84375 C76.71875,99.84375 83.125,106.25 83.125,114.21875 C83.125,118.90625 80.625,123.4375 76.71875,126.09375 L76.71875,141.09375 C76.71875,145.46875 73.125,149.0625 68.75,149.0625 L68.75,149.0625 Z M68.75,103.125 C62.5,103.125 57.5,108.125 57.5,114.375 C57.5,118.4375 59.53125,122.03125 63.125,124.0625 C63.59375,124.375 63.90625,124.84375 63.90625,125.46875 L63.90625,141.25 C63.90625,143.90625 66.09375,146.09375 68.75,146.09375 C71.40625,146.09375 73.59375,143.90625 73.59375,141.25 L73.59375,125.3125 C73.59375,124.6875 73.90625,124.21875 74.375,123.90625 C77.8125,121.875 80,118.28125 80,114.21875 C80,108.125 75,103.125 68.75,103.125 L68.75,103.125 Z" id="形状" fill="#6A576D"></path>
            <path d="M68.75,190.625 C30.9375,190.625 0.15625,159.84375 0.15625,122.03125 C0.15625,84.21875 30.9375,53.4375 68.75,53.4375 C106.5625,53.4375 137.34375,84.21875 137.34375,122.03125 C137.34375,159.84375 106.5625,190.625 68.75,190.625 Z M68.75,56.71875 C32.65625,56.71875 3.28125,86.09375 3.28125,122.1875 C3.28125,158.28125 32.65625,187.5 68.75,187.5 C104.84375,187.5 134.21875,158.125 134.21875,122.03125 C134.21875,85.9375 104.84375,56.71875 68.75,56.71875 Z" id="形状" fill="#A06214"></path>
        </g>
    </g>
</svg>