<?xml version="1.0" encoding="UTF-8"?>
<svg width="200px" height="200px" viewBox="0 0 200 200" version="1.1" xmlns="http://www.w3.org/2000/svg" xmlns:xlink="http://www.w3.org/1999/xlink">
    <!-- Generator: Sketch 55.1 (78136) - https://sketchapp.com -->
    <title>消息</title>
    <desc>Created with Sketch.</desc>
    <g id="消息" stroke="none" stroke-width="1" fill="none" fill-rule="evenodd">
        <g id="编组" transform="translate(23.000000, 23.000000)" fill="#303030">
            <path d="M77.6093089,0 C34.7602257,0 0,32.4210526 0,72.5092461 C0,94.1963016 10.2750353,113.692745 26.2341326,127.055477 C23.1734838,135.379801 22.954866,143.923186 24.2665726,149.399716 C24.922426,152.247511 27.5458392,154 30.1692525,154 C30.8251058,154 31.4809591,153.780939 32.1368124,153.561878 C37.3836389,151.809388 45.909732,148.961593 50.9379408,147.866287 C58.5895628,146.113798 77.3906911,145.018492 77.3906911,145.018492 C120.239774,145.018492 155,112.59744 155,72.5092461 C155,32.4210526 120.458392,0 77.6093089,0 Z M77.5,134.948336 L76.6118644,134.948336 C74.6135593,135.174256 56.1847458,136.303853 47.7474576,138.111208 C44.4169492,138.788967 39.2186441,139.918564 35,141.5 C35.2220339,139.240806 35.1118644,136.985114 36,134.5 L39.5,125 L32.5,119 C18.7338983,107.252189 12,91.119965 12,73.7241681 C12,39.8362522 41.3084746,12.5 77.5,12.5 C113.691525,12.5 143,39.8362522 143,73.7241681 C143,107.612084 113.691525,134.948336 77.5,134.948336 Z" id="形状" fill-rule="nonzero" transform="translate(77.500000, 77.000000) scale(-1, 1) translate(-77.500000, -77.000000) "></path>
            <circle id="椭圆形" cx="45.5" cy="76" r="10"></circle>
            <circle id="椭圆形备份" cx="77.5" cy="76" r="10"></circle>
            <circle id="椭圆形备份-2" cx="109.5" cy="76" r="10"></circle>
        </g>
    </g>
</svg>