<?xml version="1.0" encoding="UTF-8"?>
<svg width="200px" height="200px" viewBox="0 0 200 200" version="1.1" xmlns="http://www.w3.org/2000/svg" xmlns:xlink="http://www.w3.org/1999/xlink">
    <!-- Generator: Sketch 55.1 (78136) - https://sketchapp.com -->
    <title>分享</title>
    <desc>Created with Sketch.</desc>
    <g id="分享" stroke="none" stroke-width="1" fill="none" fill-rule="evenodd">
        <g id="编组" transform="translate(25.000000, 20.000000)">
            <circle id="椭圆形" stroke="#303030" stroke-width="10" cx="80" cy="80" r="80"></circle>
            <path d="M107,92 C102.77,92 98.96,93.77 96.236,96.59 L79.298,88.118 C79.712,86.468 80,84.776 80,83 C80,80.528 79.496,78.188 78.71,75.986 L97.31,64.358 C99.926,66.602 103.286,68 107,68 C115.286,68 122,61.286 122,53 C122,44.714 115.286,38 107,38 C98.714,38 92,44.714 92,53 C92,54.302 92.216,55.538 92.528,56.738 L73.994,68.324 C70.184,64.43 64.88,62 59,62 C47.396,62 38,71.396 38,83 C38,94.604 47.396,104 59,104 C65.594,104 71.396,100.904 75.248,96.152 L92.234,104.648 C92.12,105.416 92,106.196 92,107 C92,115.286 98.714,122 107,122 C115.286,122 122,115.286 122,107 C122,98.714 115.286,92 107,92 Z" id="路径" fill="#303030" fill-rule="nonzero"></path>
        </g>
    </g>
</svg>