<?xml version="1.0" encoding="UTF-8"?>
<svg width="200px" height="200px" viewBox="0 0 200 200" version="1.1" xmlns="http://www.w3.org/2000/svg" xmlns:xlink="http://www.w3.org/1999/xlink">
    <!-- Generator: Sketch 55.1 (78136) - https://sketchapp.com -->
    <title>上传</title>
    <desc>Created with Sketch.</desc>
    <g id="上传" stroke="none" stroke-width="1" fill="none" fill-rule="evenodd">
        <g id="编组" transform="translate(25.000000, 20.000000)">
            <circle id="椭圆形" stroke="#303030" stroke-width="10" cx="80" cy="80" r="80"></circle>
            <path d="M107.723611,55.8033009 L85.8033009,77.7236111 C82.8743687,80.6525433 78.1256313,80.6525433 75.1966991,77.7236111 C72.267767,74.7946789 72.267767,70.0459415 75.1966991,67.1170094 L97.1170094,45.1966991 C100.045942,42.267767 104.794679,42.267767 107.723611,45.1966991 C110.652543,48.1256313 110.652543,52.8743687 107.723611,55.8033009 Z" id="矩形" fill="#303030" transform="translate(91.460155, 61.460155) rotate(-270.000000) translate(-91.460155, -61.460155) "></path>
            <path d="M53.1966991,55.8033009 C50.267767,52.8743687 50.267767,48.1256313 53.1966991,45.1966991 C56.1256313,42.267767 60.8743687,42.267767 63.8033009,45.1966991 L85.7236111,67.1170094 C88.6525433,70.0459415 88.6525433,74.7946789 85.7236111,77.7236111 C82.7946789,80.6525433 78.0459415,80.6525433 75.1170094,77.7236111 L53.1966991,55.8033009 Z" id="矩形备份" fill="#303030" transform="translate(69.460155, 61.460155) rotate(-270.000000) translate(-69.460155, -61.460155) "></path>
            <path d="M50.9601551,72.9601551 L109.960155,72.9601551 C114.102291,72.9601551 117.460155,76.3180195 117.460155,80.4601551 C117.460155,84.6022907 114.102291,87.9601551 109.960155,87.9601551 L50.9601551,87.9601551 C46.8180195,87.9601551 43.4601551,84.6022907 43.4601551,80.4601551 C43.4601551,76.3180195 46.8180195,72.9601551 50.9601551,72.9601551 Z" id="矩形复制-2" fill="#303030" transform="translate(80.460155, 80.460155) rotate(-270.000000) translate(-80.460155, -80.460155) "></path>
        </g>
    </g>
</svg>