<svg id="组_11_拷贝_2" data-name="组 11 拷贝 2" xmlns="http://www.w3.org/2000/svg" xmlns:xlink="http://www.w3.org/1999/xlink" width="369" height="117" viewBox="0 0 369 117">
  <defs>
    <style>
      .cls-1, .cls-2 {
        fill: #fff;
        fill-rule: evenodd;
      }

      .cls-1 {
        filter: url(#filter);
      }
    </style>
    <filter id="filter" x="19.313" y="23.781" width="322.188" height="70.656" filterUnits="userSpaceOnUse">
      <feFlood result="flood" flood-color="#2371ff"/>
      <feComposite result="composite" operator="in" in2="SourceGraphic"/>
      <feBlend result="blend" in2="SourceGraphic"/>
    </filter>
  </defs>
  <path id="优教授课" class="cls-1" d="M53.644,45.205Q53.338,70.288,40.277,86.8v7.646Q62.449,77.323,63.062,45.205H89.187V38.782H63.365V24.1H53.948V38.782H40.581v6.423H53.644ZM36.936,94.143V40.617q3.339-4.889,6.38-16.516H33.594q-3.04,16.825-14.278,24.163v5.505a41.086,41.086,0,0,0,8.506-3.67V94.143h9.114ZM80.985,92q9.114,0.3,8.81-8.564V78.544H83.112v3.67q0.3,4.287-3.645,3.976h-2.43q-4.258.308-3.949-3.976v-31.5H63.973V82.826Q63.667,92.3,73.694,92h7.291Zm0.3-55.666a40.915,40.915,0,0,0-3.342-11.011h-7.9a43.307,43.307,0,0,1,2.734,11.011h8.506Zm34.085,0v7.952h-11.24v6.423h15.8q-5.775,5.505-16.4,11.317v6.117a91.953,91.953,0,0,0,10.025-5.2h13.063a22.471,22.471,0,0,1-7.9,6.423v3.67h-6.684q-5.467.308-8.2,0.306v7.341q1.823,0,4.86-.306,6.986-.3,10.026-0.612v4.282q0.3,3.67-3.646,3.364h-3.949v6.117h7.9q9.114,0.3,8.81-8.564V78.85q6.073-.918,1.519-0.306a99.353,99.353,0,0,0,10.937-1.835V70.592q-6.381.918-12.456,1.529V71.509a32.389,32.389,0,0,0,8.81-8.564V56.828H122.665a64.6,64.6,0,0,0,5.468-4.588,18.057,18.057,0,0,0,1.823-1.529h8.2V44.288H135.12A93.682,93.682,0,0,0,143.626,29.3h-7.9a20.911,20.911,0,0,1-2.734,4.894c-0.608,1.023-1.016,1.735-1.216,2.141V29.912h-7.594V24.1h-8.81v5.811h-8.506v6.423h8.506ZM141.2,51.017a13.433,13.433,0,0,1,1.823-1.223q2.427,14.38,8.506,24.469A52.676,52.676,0,0,1,137.55,87.108v7.035Q149.7,87.1,155.778,80.379q5.768,6.423,17.62,13.764V86.8a48.011,48.011,0,0,1-13.063-12.54q8.5-12.846,8.81-34.562h4.86V33.277H154.563q1.211-4.28,2.126-9.176h-8.81q-1.216,13.463-8.506,21.41V52.24a7.138,7.138,0,0,1,1.823-1.223h0ZM160.942,39.7q-0.306,16.825-4.86,26.916a78.905,78.905,0,0,1-6.076-22.328h-0.912a15.046,15.046,0,0,0,3.038-4.588h8.81Zm-36.758,4.588V36.335h7.594a79.714,79.714,0,0,1-5.772,7.952h-1.822ZM257.3,88.025a64.243,64.243,0,0,1-17.923-5.505q7.59-5.806,13.67-16.822V59.275h-40.1V65.7h29.164a43.163,43.163,0,0,1-9.721,11.929,44.23,44.23,0,0,1-7.9-9.176H214.47q5.162,8.875,10.936,13.458-6.992,3.978-17.923,6.117v6.117q15.494-3.061,24.911-7.341,9.413,4.588,24.91,7.341V88.025Zm-63.492-47.1V58.357q-3.041.308-6.683,0.918v7.646a34.033,34.033,0,0,1,3.645-.612,12.861,12.861,0,0,1,3.038-.612V84.661q0.3,2.753-3.341,2.753h-2.127v6.117h5.468q9.114,0.3,9.114-8.564V62.945a3.336,3.336,0,0,1,1.215-.612A32.475,32.475,0,0,0,208.09,60.8V54.687q-2.733.918-5.164,1.529V40.923h5.164V34.806h-5.164V23.8h-9.114V34.806h-6.076v6.117h6.076Zm24.911,15.9V51.017h28.556v5.811h8.81V44.9h-6.38a24.105,24.105,0,0,0,4.254-8.87h-8.507a32.443,32.443,0,0,1-3.341,8.87h-4.253a46.2,46.2,0,0,0-2.734-7.647,13.079,13.079,0,0,0-.608-1.529h-7.291a49.1,49.1,0,0,1,2.734,9.176h-6.987a74.617,74.617,0,0,0-3.342-8.87h-7.291a34.071,34.071,0,0,1,2.431,8.87h-4.861V56.828h8.81Zm20.05-23.551a45.5,45.5,0,0,0,16.708-2.447V24.1a51.563,51.563,0,0,1-18.227,3.059H209.913v6.117h28.86Zm71.755,25.08v4.894H290.782v6.117h7.9q-1.524,11.319-9.721,17.434V92q16.1-6.731,18.227-22.633h3.342v25.08h9.417V69.368h3.342Q325.11,84.666,341.514,92V86.8a25,25,0,0,1-9.721-17.434h8.81V63.251H319.945V58.357h6.38q11.235,0.308,10.936-10.705v-21.1H293.516V58.357h17.012Zm-20.05,23.857V74.874a22.532,22.532,0,0,1-5.772,3.976V45.817H270.428V52.24H275.9V91.084q9.412-3.978,14.582-8.87h0Zm-3.646-42.208a57.57,57.57,0,0,0-6.075-15.293h-8.2a48.148,48.148,0,0,1,5.468,15.293h8.81Zm14.886,5.2h8.81V52.24h-8.81V45.205Zm18.227,7.035V45.205h9.114v2.141q0.3,5.2-4.557,4.894h-4.557Zm9.114-12.846h-9.114V32.665h9.114v6.729Zm-18.531-6.729v6.729h-8.81V32.665h8.81Z"/>
  <path id="优教授课_拷贝_2" data-name="优教授课 拷贝 2" class="cls-2" d="M49.7,41.261Q49.4,66.344,36.338,82.858V90.5Q58.51,73.379,59.122,41.261H85.248V34.838H59.426V20.157H50.008V34.838H36.642v6.423H49.7ZM33,90.2V36.674q3.339-4.889,6.38-16.516H29.655Q26.614,36.982,15.376,44.32v5.505a41.091,41.091,0,0,0,8.506-3.67V90.2H33Zm44.049-2.141q9.114,0.3,8.81-8.564V74.6H79.172v3.67q0.3,4.287-3.645,3.976H73.1q-4.258.308-3.949-3.976v-31.5H60.033V78.882q-0.306,9.477,9.721,9.176h7.291Zm0.3-55.666a40.917,40.917,0,0,0-3.342-11.011h-7.9a43.313,43.313,0,0,1,2.734,11.011h8.506Zm34.085,0v7.952h-11.24v6.423h15.8q-5.773,5.505-16.4,11.317V64.2A92,92,0,0,0,109.612,59h13.063a22.474,22.474,0,0,1-7.9,6.423v3.67h-6.683q-5.469.308-8.2,0.306v7.341q1.824,0,4.861-.306,6.984-.3,10.025-0.612v4.282q0.3,3.67-3.645,3.364h-3.95v6.117h7.9q9.114,0.3,8.81-8.564V74.906q6.073-.918,1.519-0.306a99.326,99.326,0,0,0,10.936-1.835V66.648q-6.379.918-12.455,1.529V67.565A32.388,32.388,0,0,0,132.7,59V52.884H118.725a64.3,64.3,0,0,0,5.468-4.588,18.057,18.057,0,0,0,1.823-1.529h8.2V40.344h-3.038a93.759,93.759,0,0,0,8.506-14.987h-7.9a20.869,20.869,0,0,1-2.734,4.894c-0.607,1.023-1.016,1.735-1.215,2.141V25.969h-7.595V20.157h-8.81v5.811h-8.506v6.423h8.506Zm25.822,14.681a13.487,13.487,0,0,1,1.823-1.224q2.428,14.38,8.506,24.469a52.671,52.671,0,0,1-13.974,12.846V90.2q12.147-7.04,18.227-13.764,5.768,6.423,17.62,13.764V82.858A48.025,48.025,0,0,1,156.4,70.318q8.5-12.846,8.81-34.562h4.861V29.333H150.623q1.211-4.28,2.127-9.176h-8.81q-1.218,13.463-8.506,21.41V48.3a7.127,7.127,0,0,1,1.822-1.223h0ZM157,35.756q-0.306,16.825-4.861,26.916a78.937,78.937,0,0,1-6.076-22.328h-0.911a15.085,15.085,0,0,0,3.038-4.588H157Zm-36.759,4.588V32.392h7.595a80.024,80.024,0,0,1-5.772,7.952h-1.823ZM253.365,84.082a64.254,64.254,0,0,1-17.924-5.505q7.59-5.807,13.671-16.822V55.331h-40.1v6.423h29.164a43.126,43.126,0,0,1-9.721,11.928,44.257,44.257,0,0,1-7.9-9.176H210.53q5.163,8.875,10.937,13.458-6.992,3.979-17.924,6.117V90.2q15.494-3.061,24.911-7.341,9.413,4.588,24.911,7.341V84.082Zm-63.492-47.1V54.413q-3.04.308-6.684,0.917v7.647a34.015,34.015,0,0,1,3.646-.612,12.843,12.843,0,0,1,3.038-.612V80.717q0.3,2.753-3.342,2.753h-2.126v6.117h5.468q9.114,0.3,9.113-8.564V59a3.345,3.345,0,0,1,1.216-.612,32.611,32.611,0,0,0,3.949-1.529V50.743q-2.735.918-5.165,1.529V36.979h5.165V30.862h-5.165V19.851h-9.113V30.862H183.8v6.117h6.076Zm24.91,15.9V47.073H243.34v5.811h8.81V40.956h-6.38a24.1,24.1,0,0,0,4.253-8.87h-8.506a32.443,32.443,0,0,1-3.342,8.87h-4.253a46.008,46.008,0,0,0-2.734-7.646,12.921,12.921,0,0,0-.607-1.529H223.29a49.249,49.249,0,0,1,2.734,9.176h-6.987a74.791,74.791,0,0,0-3.342-8.87H208.4a34.069,34.069,0,0,1,2.43,8.87h-4.86V52.884h8.809Zm20.051-23.551a45.511,45.511,0,0,0,16.708-2.447V20.157a51.563,51.563,0,0,1-18.227,3.059H205.974v6.117h28.86Zm71.754,25.08v4.894H286.842v6.117h7.9q-1.524,11.319-9.722,17.434v5.2q16.1-6.731,18.228-22.633h3.341V90.5h9.418V65.424h3.342q1.822,15.3,18.227,22.633v-5.2a25,25,0,0,1-9.721-17.434h8.81V59.307H316.006V54.413h6.379q11.236,0.308,10.937-10.705V22.6H289.576V54.413h17.012ZM286.538,78.27V70.93a22.534,22.534,0,0,1-5.772,3.976V41.873H266.488V48.3h5.468V87.14q9.414-3.979,14.582-8.87h0Zm-3.645-42.208a57.536,57.536,0,0,0-6.076-15.293h-8.2a48.173,48.173,0,0,1,5.468,15.293h8.81Zm14.886,5.2h8.809V48.3h-8.809V41.261ZM316.006,48.3V41.261h9.114V43.4q0.3,5.2-4.557,4.894h-4.557ZM325.12,35.45h-9.114V28.721h9.114V35.45Zm-18.532-6.729V35.45h-8.809V28.721h8.809Z"/>
</svg>
