<svg xmlns="http://www.w3.org/2000/svg" width="443" height="181" viewBox="0 0 443 181">
  <defs>
    <style>
      .cls-1 {
        fill: #fff;
        fill-rule: evenodd;
      }
    </style>
  </defs>
  <path id="形状_1" data-name="形状 1" class="cls-1" d="M107.035,22l7.912,39.7,0.466-.934L138.683,22H190.81l-74,102.747-5.12-2.335q0.234-.7.466-1.4l53.988-82.665V37.879c-7.076-.127-18.879-1.535-24.2.934L111.224,85.984l-0.931-.467L98.658,37.879H67.01l30.717,76.594H97.262C86.9,108.747,84.02,97.052,78.645,86.451L47,22.467V22h60.038ZM285.288,36.478c17.122-.4,30.071,2.663,36.3,13.077,11.071,18.5,2.416,44.866-13.5,50.907-32.153,12.206-63.355-13.188-49.333-47.171C263.875,40.9,272.459,41.464,285.288,36.478Zm-37.233.467V48.621c-14.517-.362-33.38-2.187-38.629,7.006-2.175,3.809-1.918,9.937-1.862,15.879,0.211,22.037,18.444,19.681,40.491,19.148V102.33c-19,.329-41.927,2.159-50.264-8.407-11.128-14.1-8.518-44.226,5.585-52.775C213.125,35.239,232.566,36.7,248.055,36.945Zm88.894,0,22.34,0.467Q367.9,62.4,376.509,87.385h0.466Q385.816,62.4,394.66,37.412L417,36.945V102.33H402.572q-0.233-24.05-.465-48.1v0.934L384.421,102.33H368.6q-8.376-24.05-16.755-48.1h-0.465v48.1H336.949V36.945ZM43.274,44.418h6.981l3.723,6.538C32.27,56.362,32.807,80.4,43.274,97.193c16.579,26.593,47.369,46.28,80.982,55.578,22.19,6.137,55.366,4.2,55.384-20.55l0.93,0.467c1.024,33.32-31.006,36.838-60.969,28.489-37.677-10.5-71.247-31.281-91.686-59.313-6.724-9.222-19.476-31.32-8.843-45.769C24.984,48.061,33.066,48.568,43.274,44.418Zm242.945,3.269c-3.614,1.784-7.519,2.524-9.774,5.6-11.659,15.927-.473,46.12,22.806,37.363,11.654-4.384,14.53-32.294,3.723-40.165C299.17,47.718,293.007,47.449,286.219,47.687ZM151.249,86.918c11.559,5.364,30.457,37.823,13.032,49.505-25.033,16.783-78.47-13-88.894-27.088l10.7,7.94a125,125,0,0,0,39.56,16.813c18.047,4.071,40.633-1.539,33.51-22.417-2.533-7.422-7.8-13-12.1-18.682ZM73.06,107l0.931,0.934A1.773,1.773,0,0,1,73.06,107Zm204.782,7.006H282.5v9.34h12.566v3.27H282.5a71.938,71.938,0,0,0,2.792,21.016q0.466-.233.931-0.467l3.723-14.945c2.284,1.093,3.109.178,3.724,3.269-1.744,6.078-3.1,11.372-5.585,16.346,1.248,2.764,2.229,4.84,5.585,5.6q0.465-1.635.931-3.269l3.723,3.736c-1.055,2.8-2.015,4.883-4.189,6.538-4.777-.639-7.432-4.418-9.308-7.939l-3.723,3.736-3.724,2.8-5.119-2.335,0.465-.934a18.186,18.186,0,0,0,9.308-6.538c-1.684-7.985-4.1-16.013-4.188-26.621h-24.2v-3.27l24.2-.467v-8.873Zm7.912,0h4.654q1.162,3.969,2.327,7.939l-5.12-.467Zm32.113,15.879v-7.94l-8.377.934q-0.467-2.1-.931-4.2a65.851,65.851,0,0,0,20.478-4.67c0.07,6.28-3.028,5.624-6.981,7.472v8.407l8.377,0.467-0.465,3.269h-7.912v4.2l4.189-1.868,3.723,7.006-4.654,1.868-2.793-6.071h-0.465v0.467c1.322,4.57,2.082,21.762-.466,25.219l-3.723-.934V143.429l-0.931.467a21.9,21.9,0,0,1-7.446,10.275l-1.862-5.138a29.022,29.022,0,0,0,9.774-15.412l-10.239-.467v-2.8l0.465-.467h10.239Zm28.39-15.879h4.654V143.9l6.982-.934c-0.413,1.752-.225,3.383-0.931,4.2l-6.051,1.4v15.879h-4.654V114.006Zm20.478,14.945q0.234-1.867.466-3.736h5.585q0.93-5.6,1.861-11.209l4.655,0.934v0.467l-2.793,9.808,9.774,0.467-4.189,22.884,6.05,3.269-0.93.935q-0.931,1.167-1.862,2.335l-5.585-2.8c-1.509,4.273-5.925,8.254-9.308,10.741l-1.4-.934q-0.931-1.868-1.862-3.736a14.594,14.594,0,0,0,9.308-8.874c-2.971-.834-7.531-3-8.377-6.071l3.723-14.011v-0.467h-5.12Zm22.806-14.011H394.2q-0.232,20.313-.466,40.632l-4.188-.467V136.89h-2.327v-3.269h2.327V114.94Zm24.2,18.681H417v3.269h-3.258v14.945H417l-0.465,3.737-2.793-.467c-0.224,6.974-3.51,7.648-8.843,9.34-5.819-5.884,1.184-4.539,4.189-7.939l-0.465-1.4h-13.5v-3.27h13.962V136.89H395.126v-3.269h13.962V118.676H395.126l0.465-3.736,18.151,0.467v18.214ZM335.087,119.61h4.189l3.258,7.94H337.88Zm-87.032,1.4h4.654c0.1,14.867-.3,31.258-1.861,43.434l-4.654-.934C248.252,151.845,248.063,135.434,248.055,121.011Zm149.4,0.934c2.8-.146,4.039-0.247,5.119,1.4l2.793,6.539h-4.654Zm-21.409,7.006c-1.27,3.63-4.14,11.906-2.793,14.478l5.12,2.335,3.258-16.346v-0.467h-5.585Zm-122.4,2.335h21.875v3.269h-9.309l-1.861,4.671h11.17c-0.859,5.014-3.738,7.807-5.585,11.675l6.515,2.336-0.93.934q-0.466,1.167-.931,2.335l-6.981-2.335c-4.59,3.311-8.6,6.651-14.894,8.406q0.7-2.334,1.4-4.67a15.831,15.831,0,0,0,8.377-4.67V152.77l-8.377-1.869,0.93-1.868q1.629-3.268,3.258-6.538H253.64v-3.269h6.051l1.861-4.2v-0.467H253.64v-3.269Zm81.447,0h4.655q1.4,3.969,2.792,7.94h-4.189Zm62.831,8.874,4.654,0.467,2.793,7.939h-3.724C399.757,146.667,398.474,143.305,397.918,140.16ZM262.948,142.5l-3.257,6.071,5.585,0.467c2.206-1.381,3.145-3.518,4.188-6.071V142.5h-6.516Zm66.089,4.67L344.4,144.83l0.93,0.467v4.2l-16.289,2.335v-4.67Z"/>
</svg>
