<?xml version="1.0" encoding="UTF-8"?>
<svg width="200px" height="200px" viewBox="0 0 200 200" version="1.1" xmlns="http://www.w3.org/2000/svg" xmlns:xlink="http://www.w3.org/1999/xlink">
    <!-- Generator: Sketch 54.1 (76490) - https://sketchapp.com -->
    <title>教学分析</title>
    <desc>Created with Sketch.</desc>
    <defs>
        <linearGradient x1="50%" y1="0.0580658784%" x2="50%" y2="100%" id="linearGradient-1">
            <stop stop-color="#28C9B1" offset="0%"></stop>
            <stop stop-color="#A3D4FF" offset="100%"></stop>
        </linearGradient>
    </defs>
    <g id="教学分析" stroke="none" stroke-width="1" fill="none" fill-rule="evenodd">
        <path d="M39,15 C33.4771525,15 29,19.4771525 29,25 L29,175 C29,180.522847 33.4771525,185 39,185 L161,185 C166.522847,185 171,180.522847 171,175 L171,25 C171,19.4771525 166.522847,15 161,15 L39,15 Z" id="矩形" stroke="#303030" stroke-width="10"></path>
        <g id="编组-2" transform="translate(45.000000, 125.500000)" fill="#303030">
            <rect id="矩形复制-2" x="40" y="0" width="70" height="10" rx="5"></rect>
            <rect id="矩形复制-4" x="0" y="0" width="30" height="10" rx="5"></rect>
            <rect id="矩形复制-3" x="0" y="26" width="110" height="10" rx="5"></rect>
        </g>
        <g id="分析" transform="translate(61.000000, 30.000000)">
            <path d="M35.7952277,5 C26.4944522,5.53054635 17.7174343,9.42249543 11.1397906,15.932837 C3.99539732,22.9621083 -0.0138797475,32.5121979 4.34236292e-05,42.4676917 C-0.0152204874,52.4249063 3.99415904,61.9770278 11.1397906,69.0075136 C18.2644881,76.0586567 27.9446124,80.0150192 38.0352582,79.9999572 C48.12416,80.0136962 57.8022251,76.0574348 64.9256918,69.0075136 C71.5083518,62.531418 75.4495997,53.8940097 76,44.7377083 L67.0398779,44.7377083 C65.8843527,59.6186176 53.3057607,71.1085661 38.1812377,71.0987105 C30.5114296,71.1026637 23.1541656,68.0999239 17.7279602,62.7510598 C12.3017548,57.4021958 9.25109483,50.1453586 9.24709077,42.5769704 C9.25405826,27.7287926 20.7987303,15.3669238 35.7952277,14.1496073 L35.7952277,5 Z" id="路径" fill="#303030" fill-rule="nonzero"></path>
            <path d="M76.1552708,22.3382561 C74.3395916,17.9915186 71.7026513,14.0444811 68.397818,10.7119823 C61.6240852,3.84476429 52.4180923,-0.0106935194 42.8199924,2.22778479e-05 L40,0 L40,40 L79,40 L79,36.5725724 C79,31.6362775 78.0402131,26.8448737 76.1552708,22.3332599 L76.1552708,22.3382561 Z" id="路径" fill="#303030"></path>
            <path d="M48.9200812,10.7419598 C59.3194215,11.9710373 68.3186604,23.0777011 69.0855004,31.2565625 L48.9200812,31.2565625 L48.9200812,10.7319673 L48.9200812,10.7369636 L48.9200812,10.7419598 Z" id="路径" fill="url(#linearGradient-1)"></path>
        </g>
    </g>
</svg>