<?xml version="1.0" encoding="UTF-8"?>
<svg width="200px" height="200px" viewBox="0 0 200 200" version="1.1" xmlns="http://www.w3.org/2000/svg" xmlns:xlink="http://www.w3.org/1999/xlink">
    <!-- Generator: Sketch 54.1 (76490) - https://sketchapp.com -->
    <title>教学云盘</title>
    <desc>Created with Sketch.</desc>
    <defs>
        <linearGradient x1="50%" y1="0.0580658784%" x2="50%" y2="100%" id="linearGradient-1">
            <stop stop-color="#28C9B1" offset="0%"></stop>
            <stop stop-color="#A3D4FF" offset="100%"></stop>
        </linearGradient>
    </defs>
    <g id="教学云盘" stroke="none" stroke-width="1" fill="none" fill-rule="evenodd">
        <g id="云盘_30" transform="translate(15.000000, 25.000000)">
            <path d="M168.3,117.692308 L147.333333,22.5 C146.766667,9.8076922 137.133333,1.42108547e-14 124.666667,1.42108547e-14 L45.3333334,1.42108547e-14 C32.8666666,1.42108547e-14 23.2333334,9.8076922 22.6666666,22.5 L1.7,117.692308 C0.566666611,120.576923 0,123.461538 0,126.923077 L0,128.076923 C0.566666611,140.192308 10.7666666,150 22.6666666,150 L147.333333,150 C159.233333,150 169.433333,140.192308 170,128.076923 L170,126.923077 C170,123.461538 169.433333,120.576923 168.3,117.692308 Z M34,24.2307692 L34,23.076923 C34,16.7307691 39.1,11.5384614 45.3333334,11.5384614 L124.666667,11.5384614 C130.9,11.5384614 136,16.7307691 136,23.076923 L136,24.2307692 L153.566667,105 C151.866667,104.423077 149.6,103.846154 147.333333,103.846154 L22.6666666,103.846154 C20.4,103.846154 18.1333332,104.423077 16.4333334,105 L34,24.2307692 Z M147.333333,138.461539 L22.6666666,138.461539 C16.4333332,138.461539 11.3333332,133.269231 11.3333334,127.5 L12.4666666,121.730769 C14.7333332,118.269231 18.1333332,115.384615 22.6666666,115.384615 L147.333333,115.384615 C151.866667,115.384615 155.266667,117.692308 157.533333,121.730769 L158.666667,127.5 C158.666667,133.269231 153.566667,138.461538 147.333333,138.461539 Z" id="形状" fill="#303030" fill-rule="nonzero"></path>
            <path d="M136,127.5 C136,129.464961 137.048294,131.280659 138.75,132.26314 C140.451706,133.24562 142.548294,133.24562 144.25,132.26314 C145.951706,131.280659 147,129.464961 147,127.5 C147,125.535039 145.951706,123.719341 144.25,122.73686 C142.548294,121.75438 140.451706,121.75438 138.75,122.73686 C137.048294,123.719341 136,125.535039 136,127.5 Z" id="路径" fill="#303030" fill-rule="nonzero"></path>
            <path d="M68,81 L102,81 C111.633333,81 119,73.4888889 119,63.6666667 C119,56.1555556 113.9,49.2222223 107.1,46.9111112 C104.833333,36.5111112 95.7666666,29.0000002 85,29 C74.2333334,28.9999998 65.1666666,36.5111111 62.9,46.9111112 C56.1,49.2222223 51,56.1555556 51,63.6666667 C51,73.4888889 58.3666666,81 68,81 Z" id="路径" fill="#303030" fill-rule="nonzero"></path>
            <path d="M68,57.8888889 C71.4,57.8888889 73.6666666,55.5777779 73.6666666,52.1111112 C73.6666666,45.7555556 78.7666666,40.5555556 85,40.5555556 C91.2333334,40.5555556 96.3333334,45.7555556 96.3333334,52.1111112 C96.3333334,55.5777779 98.6,57.8888889 102,57.8888889 C105.4,57.8888889 107.666667,60.2 107.666667,63.6666667 C107.666667,67.1333333 105.4,69.4444444 102,69.4444446 L68,69.4444446 C64.6,69.4444446 62.3333334,67.1333335 62.3333334,63.6666667 C62.3333334,60.1999998 64.6,57.8888889 68,57.8888889 Z" id="路径" fill="url(#linearGradient-1)"></path>
        </g>
    </g>
</svg>