<?xml version="1.0" encoding="UTF-8"?>
<svg width="200px" height="200px" viewBox="0 0 200 200" version="1.1" xmlns="http://www.w3.org/2000/svg" xmlns:xlink="http://www.w3.org/1999/xlink">
    <!-- Generator: Sketch 54.1 (76490) - https://sketchapp.com -->
    <title>课后作业</title>
    <desc>Created with Sketch.</desc>
    <defs>
        <linearGradient x1="50%" y1="0.0580658784%" x2="50%" y2="100%" id="linearGradient-1">
            <stop stop-color="#28C9B1" offset="0%"></stop>
            <stop stop-color="#A3D4FF" offset="100%"></stop>
        </linearGradient>
        <linearGradient x1="50%" y1="0.0580658784%" x2="50%" y2="100%" id="linearGradient-2">
            <stop stop-color="#28C9B1" offset="0%"></stop>
            <stop stop-color="#A3D4FF" offset="100%"></stop>
        </linearGradient>
    </defs>
    <g id="课后作业" stroke="none" stroke-width="1" fill="none" fill-rule="evenodd">
        <g id="编组-3" transform="translate(22.000000, 20.000000)">
            <path d="M136.5,80 L160,80 L160,145 C160,153.284271 153.284271,160 145,160 L119.473684,160" id="路径" stroke="#303030" stroke-width="10"></path>
            <path d="M125,160 L104.539474,160 L15,160 C6.71572875,160 0,153.284271 0,145 L0,15 C0,6.71572875 6.71572875,1.77635684e-15 15,0 L125,0 C133.284271,-1.77635684e-15 140,6.71572875 140,15 L140,132" id="路径" stroke="#303030" stroke-width="10" stroke-linecap="round"></path>
            <g id="编组-2" transform="translate(15.000000, 101.000000)" fill="#303030">
                <rect id="矩形复制-2" x="40" y="0" width="70" height="10" rx="5"></rect>
                <rect id="矩形复制-4" x="0" y="0" width="30" height="10" rx="5"></rect>
                <rect id="矩形复制-3" x="0" y="26" width="110" height="10" rx="5"></rect>
            </g>
            <g id="编组" transform="translate(71.500000, 55.000000) rotate(-315.000000) translate(-71.500000, -55.000000) translate(59.000000, 5.000000)" stroke="#303030" stroke-width="8">
                <path d="M0,30 L25,30 L25,74.0711986 C25,77.9405168 23.8776057,81.7267605 21.7688723,84.9709657 L13.7447466,97.3157744 C13.1427691,98.2418937 11.9040019,98.5046625 10.9778827,97.902685 C10.7230175,97.7370226 10.509267,97.5154449 10.3528735,97.2547892 L2.85014149,84.7502358 C0.985156667,81.6419278 4.43919637e-16,78.0851996 0,74.4603207 L0,30 Z" id="矩形" fill="url(#linearGradient-1)"></path>
                <path d="M8,0 L17,0 C21.418278,-8.11624501e-16 25,3.581722 25,8 L25,15 L0,15 L0,8 C-5.41083001e-16,3.581722 3.581722,8.11624501e-16 8,0 Z" id="矩形" fill="url(#linearGradient-2)"></path>
            </g>
        </g>
    </g>
</svg>