<?xml version="1.0" encoding="UTF-8"?>
<svg width="200px" height="200px" viewBox="0 0 200 200" version="1.1" xmlns="http://www.w3.org/2000/svg" xmlns:xlink="http://www.w3.org/1999/xlink">
    <!-- Generator: Sketch 54.1 (76490) - https://sketchapp.com -->
    <title>预习探究</title>
    <desc>Created with Sketch.</desc>
    <defs>
        <linearGradient x1="50%" y1="0.0580658784%" x2="50%" y2="100%" id="linearGradient-1">
            <stop stop-color="#28C9B1" offset="0%"></stop>
            <stop stop-color="#A3D4FF" offset="100%"></stop>
        </linearGradient>
    </defs>
    <g id="预习探究" stroke="none" stroke-width="1" fill="none" fill-rule="evenodd">
        <path d="M39,15 C33.4771525,15 29,19.4771525 29,25 L29,175 C29,180.522847 33.4771525,185 39,185 L161,185 C166.522847,185 171,180.522847 171,175 L171,25 C171,19.4771525 166.522847,15 161,15 L39,15 Z" id="矩形" stroke="#303030" stroke-width="10"></path>
        <g id="编组" transform="translate(49.000000, 35.000000)">
            <rect id="矩形" stroke="#303030" stroke-width="10" fill="url(#linearGradient-1)" x="5" y="5" width="40" height="30" rx="4"></rect>
            <rect id="矩形" fill="#303030" x="0" y="80" width="50" height="10" rx="5"></rect>
            <rect id="矩形复制" fill="#303030" x="0" y="110" width="50" height="10" rx="5"></rect>
            <g id="编组-2" transform="translate(60.000000, 30.000000)">
                <path d="M0.116210036,85.0401318 L14.3267103,30.8924447 C14.8702283,28.821424 16.9897307,27.5831383 19.0607514,28.1266563 C19.0737368,28.1300641 19.0867043,28.1335394 19.0996535,28.137082 L19.0996535,28.137082 C21.192803,28.7097141 22.4346469,30.860883 21.88379,32.9598682 L7.67328966,87.1075553 C7.1297717,89.178576 5.01026931,90.4168617 2.93924858,89.8733437 C2.92626324,89.8699359 2.9132957,89.8664606 2.90034647,89.862918 L2.90034647,89.862918 C0.807197001,89.2902859 -0.434646912,87.139117 0.116210036,85.0401318 Z" id="矩形复制-2" fill="#303030"></path>
                <path d="M50.88379,85.0401318 L36.6732897,30.8924447 C36.1297717,28.821424 34.0102693,27.5831383 31.9392486,28.1266563 C31.9262632,28.1300641 31.9132957,28.1335394 31.9003465,28.137082 L31.9003465,28.137082 C29.807197,28.7097141 28.5653531,30.860883 29.11621,32.9598682 L43.3267103,87.1075553 C43.8702283,89.178576 45.9897307,90.4168617 48.0607514,89.8733437 C48.0737368,89.8699359 48.0867043,89.8664606 48.0996535,89.862918 L48.0996535,89.862918 C50.192803,89.2902859 51.4346469,87.139117 50.88379,85.0401318 Z" id="矩形复制-3" fill="#303030"></path>
                <circle id="椭圆形" stroke="#303030" stroke-width="10" cx="25.5" cy="24.5" r="9.5"></circle>
                <rect id="矩形" fill="#303030" x="20.5" y="0" width="10" height="16" rx="5"></rect>
                <path d="M2,60 C7.76067823,66.1418203 16.0857339,70 25.3442063,70 L25.3442063,70 C33.7337304,70 41.3568261,66.8320491 47,61.6676614" id="路径" stroke="#303030" stroke-width="10" stroke-linecap="round"></path>
            </g>
        </g>
    </g>
</svg>