<?xml version="1.0" encoding="UTF-8"?>
<svg width="200px" height="200px" viewBox="0 0 200 200" version="1.1" xmlns="http://www.w3.org/2000/svg" xmlns:xlink="http://www.w3.org/1999/xlink">
    <!-- Generator: Sketch 54.1 (76490) - https://sketchapp.com -->
    <title>课堂教学</title>
    <desc>Created with Sketch.</desc>
    <defs>
        <linearGradient x1="50%" y1="0.0580658784%" x2="50%" y2="100%" id="linearGradient-1">
            <stop stop-color="#28C9B1" offset="0%"></stop>
            <stop stop-color="#A3D4FF" offset="100%"></stop>
        </linearGradient>
    </defs>
    <g id="课堂教学" stroke="none" stroke-width="1" fill="none" fill-rule="evenodd">
        <g id="课堂互动" transform="translate(15.000000, 15.000000)">
            <path d="M74.2083308,167.605529 L19.3259779,130.323473 C14.189206,126.721342 11.1251666,120.777826 11.1251666,114.474096 L11.1251666,112.312818 C11.0350478,107.900207 13.3781368,103.84781 17.2532454,101.686531 C21.0382353,99.5252528 25.7244132,99.7053593 29.4192842,102.136798 L87.8162705,141.850292 C89.9791218,143.381198 90.6099535,146.352956 89.0779338,148.514234 C87.5459141,150.675513 84.5719935,151.305886 82.4091421,149.77498 L24.1022747,110.061486 C23.471443,109.701273 22.7504926,109.61122 22.0295421,110.061486 C21.2184729,110.511752 20.8579976,111.232179 20.8579976,112.042658 L20.8579976,114.474096 C20.8579976,117.625961 22.3900173,120.597719 25.0034627,122.488838 L79.6154592,159.680841 C81.2375977,160.76148 83.0399738,161.3018 84.9324687,161.3018 C86.8249636,161.3018 88.8075774,160.671427 90.4297159,159.500734 L136.300188,126.181022 L137.021139,125.910862 C139.634584,125.01033 141.707316,123.119211 142.698623,120.687772 L142.698623,88.7188597 L90.7765232,123.606609 C87.4054827,125.871694 82.9993121,125.872968 79.6269623,123.609832 L5.62791943,73.9501226 C4.36625615,73.0495898 3.19471167,71.9689505 2.38364242,70.7082047 C0.310909881,67.8264999 -0.410040567,64.3144221 0.220791075,60.8923977 C0.851622717,57.4703732 2.74411764,54.4085619 5.62791943,52.4273898 L77.813083,3.16824827 C82.1387857,0.106436917 87.9965081,0.196490193 92.3222108,3.4384081 L165.228325,55.3991479 C166.219632,56.1195741 167.12082,57.0201069 167.84177,58.0106929 C169.644146,60.5321846 170.365097,63.6840492 169.824384,66.7458606 C169.283671,69.8076719 167.571414,72.4192169 165.048087,74.1302291 L164.957968,74.2202824 L152.251217,82.595237 L152.251217,122.488838 L151.98086,123.209264 C150.268603,128.522407 146.123138,132.844965 140.806128,134.91619 L96.0170818,167.515476 C92.682686,169.676754 88.8976962,170.9375 84.9324687,170.9375 C81.1474789,170.9375 77.4526078,169.766807 74.2083308,167.605529 Z M11.1251666,66.1154876 L82.9744415,114.242207 C84.3225291,115.145195 86.0825544,115.144349 87.4297742,114.240067 L144.771356,75.7511881 C145.131831,75.4810283 145.492306,75.3009217 145.852782,75.2108684 L159.640959,66.1154876 C160.091553,65.7552745 160.271791,65.3050082 160.361909,65.0348483 C160.452028,64.7646885 160.452028,64.2243689 160.001434,63.5939959 L159.640959,63.2337828 L86.5546072,11.0929365 C85.5633004,10.3725103 84.3016371,10.282457 83.2202114,11.0028832 L11.1251666,60.352078 C10.4042162,60.8923977 9.86350332,61.7028772 9.6832657,62.6034099 C9.50302809,63.5039427 9.6832657,64.4945287 10.2239785,65.2149549 C10.494335,65.575168 10.7646914,65.8453278 11.1251666,66.1154876 Z" id="形状" fill="#333333" fill-rule="nonzero"></path>
            <path d="M76,33.3086615 L76,82.4935587 C76,84.4717447 78.2298456,85.6406728 79.8353345,84.4717447 L113.996569,59.9242549 C115.334477,58.9351619 115.334477,56.9569759 113.996569,55.9678829 L79.8353345,31.420393 C78.2298456,30.2514649 76,31.3304755 76,33.3086615 L76,33.3086615 Z" id="路径" stroke="#303030" stroke-width="8" fill="url(#linearGradient-1)"></path>
        </g>
    </g>
</svg>